<mxfile host="Electron" agent="Mozilla/5.0 (Windows NT 10.0; Win64; x64) AppleWebKit/537.36 (KHTML, like Gecko) draw.io/24.7.8 Chrome/128.0.6613.36 Electron/32.0.1 Safari/537.36" version="24.7.8" pages="9">
  <diagram id="C5RBs43oDa-KdzZeNtuy" name="Fase 1 - Pattern Composite">
    <mxGraphModel dx="1235" dy="731" grid="1" gridSize="10" guides="1" tooltips="1" connect="1" arrows="1" fold="1" page="1" pageScale="1" pageWidth="827" pageHeight="1169" math="0" shadow="0">
      <root>
        <mxCell id="WIyWlLk6GJQsqaUBKTNV-0" />
        <mxCell id="WIyWlLk6GJQsqaUBKTNV-1" parent="WIyWlLk6GJQsqaUBKTNV-0" />
        <mxCell id="zkfFHV4jXpPFQw0GAbJ--12" value="" style="endArrow=block;endSize=10;endFill=0;shadow=0;strokeWidth=1;rounded=0;curved=0;edgeStyle=elbowEdgeStyle;elbow=vertical;dashed=1;entryX=0.5;entryY=1;entryDx=0;entryDy=0;exitX=0.5;exitY=0;exitDx=0;exitDy=0;" parent="WIyWlLk6GJQsqaUBKTNV-1" source="zX_m-3WCsw0XuXSlvTuy-0" target="zX_m-3WCsw0XuXSlvTuy-2" edge="1">
          <mxGeometry width="160" relative="1" as="geometry">
            <mxPoint x="318.9999999999998" y="591.9999999999998" as="sourcePoint" />
            <mxPoint x="414" y="530" as="targetPoint" />
          </mxGeometry>
        </mxCell>
        <mxCell id="zkfFHV4jXpPFQw0GAbJ--16" value="" style="endArrow=block;endSize=10;endFill=0;shadow=0;strokeWidth=1;rounded=0;curved=0;edgeStyle=elbowEdgeStyle;elbow=vertical;dashed=1;entryX=0.5;entryY=1;entryDx=0;entryDy=0;exitX=0.5;exitY=0;exitDx=0;exitDy=0;" parent="WIyWlLk6GJQsqaUBKTNV-1" source="zX_m-3WCsw0XuXSlvTuy-1" target="zX_m-3WCsw0XuXSlvTuy-2" edge="1">
          <mxGeometry width="160" relative="1" as="geometry">
            <mxPoint x="525.5" y="591.9999999999998" as="sourcePoint" />
            <mxPoint x="414" y="530" as="targetPoint" />
          </mxGeometry>
        </mxCell>
        <mxCell id="prRXXPR9L9QoltXzAuqN-13" value="" style="endArrow=open;html=1;rounded=0;exitX=0.75;exitY=0;exitDx=0;exitDy=0;entryX=0.999;entryY=0.509;entryDx=0;entryDy=0;endFill=0;startArrow=diamond;startFill=0;startSize=12;entryPerimeter=0;" parent="WIyWlLk6GJQsqaUBKTNV-1" source="zX_m-3WCsw0XuXSlvTuy-1" target="zX_m-3WCsw0XuXSlvTuy-2" edge="1">
          <mxGeometry width="50" height="50" relative="1" as="geometry">
            <mxPoint x="568.25" y="591.9999999999998" as="sourcePoint" />
            <mxPoint x="499" y="457" as="targetPoint" />
            <Array as="points">
              <mxPoint x="587" y="451" />
            </Array>
          </mxGeometry>
        </mxCell>
        <mxCell id="prRXXPR9L9QoltXzAuqN-14" value="children" style="edgeLabel;html=1;align=center;verticalAlign=middle;resizable=0;points=[];" parent="prRXXPR9L9QoltXzAuqN-13" vertex="1" connectable="0">
          <mxGeometry x="-0.7207" y="-1" relative="1" as="geometry">
            <mxPoint x="22" y="-11" as="offset" />
          </mxGeometry>
        </mxCell>
        <mxCell id="091SpdAX2npHAql9HMEn-0" value="&lt;h1 style=&quot;margin-top: 0px;&quot;&gt;Fase 1: Creazione dell&#39;organigramma sfruttando il pattern Composite&lt;/h1&gt;&lt;p&gt;In questa fase iniziamo a costruire la struttura per rappresentare l&#39;organigramma aziendale richiesto. Per farlo sfruttiamo il pattern Composite, che si mostra particolarmente adatto per il nostro scopo.&lt;/p&gt;" style="text;html=1;whiteSpace=wrap;overflow=hidden;rounded=0;" parent="WIyWlLk6GJQsqaUBKTNV-1" vertex="1">
          <mxGeometry x="80" y="80" width="680" height="120" as="geometry" />
        </mxCell>
        <mxCell id="zX_m-3WCsw0XuXSlvTuy-0" value="&lt;p style=&quot;margin:0px;margin-top:4px;text-align:center;&quot;&gt;&lt;b&gt;Unita&lt;/b&gt;&lt;/p&gt;&lt;hr size=&quot;1&quot; style=&quot;border-style:solid;&quot;&gt;&lt;p style=&quot;margin:0px;margin-left:4px;&quot;&gt;&lt;span style=&quot;text-wrap: nowrap;&quot;&gt;-&amp;nbsp;&lt;/span&gt;&lt;span style=&quot;text-wrap: nowrap; background-color: initial;&quot;&gt;tipologia:Tipologia&lt;/span&gt;&lt;/p&gt;&lt;p style=&quot;margin:0px;margin-left:4px;&quot;&gt;&lt;span style=&quot;text-wrap: nowrap;&quot;&gt;nome:String&lt;/span&gt;&lt;span style=&quot;text-wrap: nowrap; background-color: initial;&quot;&gt;&lt;br&gt;&lt;/span&gt;&lt;/p&gt;&lt;hr&gt;&lt;p style=&quot;margin:0px;margin-left:4px;&quot;&gt;&lt;span style=&quot;background-color: initial; text-wrap: nowrap;&quot;&gt;...&lt;/span&gt;&lt;/p&gt;&lt;p style=&quot;margin:0px;margin-left:4px;&quot;&gt;&lt;span style=&quot;background-color: initial; text-wrap: nowrap;&quot;&gt;&lt;br&gt;&lt;/span&gt;&lt;/p&gt;&lt;p style=&quot;margin:0px;margin-left:4px;&quot;&gt;&lt;span style=&quot;text-wrap: nowrap;&quot;&gt;+ getNome():String&lt;/span&gt;&lt;br&gt;&lt;/p&gt;&lt;p style=&quot;margin:0px;margin-left:4px;&quot;&gt;&lt;span style=&quot;text-wrap: nowrap;&quot;&gt;+ setNome()&lt;/span&gt;&lt;span style=&quot;text-wrap: nowrap;&quot;&gt;&lt;br&gt;&lt;/span&gt;&lt;/p&gt;" style="verticalAlign=top;align=left;overflow=fill;html=1;whiteSpace=wrap;" vertex="1" parent="WIyWlLk6GJQsqaUBKTNV-1">
          <mxGeometry x="194" y="599" width="190" height="147" as="geometry" />
        </mxCell>
        <mxCell id="zX_m-3WCsw0XuXSlvTuy-1" value="&lt;p style=&quot;margin:0px;margin-top:4px;text-align:center;&quot;&gt;&lt;b&gt;Unita&lt;/b&gt;&lt;/p&gt;&lt;hr size=&quot;1&quot; style=&quot;border-style:solid;&quot;&gt;&lt;p style=&quot;margin:0px;margin-left:4px;&quot;&gt;&lt;span style=&quot;text-wrap: nowrap;&quot;&gt;-&amp;nbsp;&lt;/span&gt;&lt;span style=&quot;text-wrap: nowrap; background-color: initial;&quot;&gt;tipologia:Tipologia&lt;/span&gt;&lt;/p&gt;&lt;p style=&quot;margin:0px;margin-left:4px;&quot;&gt;&lt;span style=&quot;text-wrap: nowrap;&quot;&gt;nome:String&lt;/span&gt;&lt;span style=&quot;text-wrap: nowrap; background-color: initial;&quot;&gt;&lt;br&gt;&lt;/span&gt;&lt;/p&gt;&lt;hr&gt;&lt;p style=&quot;margin:0px;margin-left:4px;&quot;&gt;&lt;span style=&quot;background-color: initial; text-wrap: nowrap;&quot;&gt;...&lt;/span&gt;&lt;/p&gt;&lt;p style=&quot;margin:0px;margin-left:4px;&quot;&gt;&lt;span style=&quot;background-color: initial; text-wrap: nowrap;&quot;&gt;&lt;br&gt;&lt;/span&gt;&lt;/p&gt;&lt;p style=&quot;margin:0px;margin-left:4px;&quot;&gt;&lt;span style=&quot;text-wrap: nowrap;&quot;&gt;+ getNome():String&lt;/span&gt;&lt;br&gt;&lt;/p&gt;&lt;p style=&quot;margin:0px;margin-left:4px;&quot;&gt;&lt;span style=&quot;text-wrap: nowrap;&quot;&gt;+ setNome()&lt;/span&gt;&lt;span style=&quot;text-wrap: nowrap;&quot;&gt;&lt;br&gt;&lt;/span&gt;&lt;/p&gt;&lt;p style=&quot;margin:0px;margin-left:4px;&quot;&gt;&lt;span style=&quot;text-wrap: nowrap;&quot;&gt;+ addChild(unita:UnitaIF)&lt;/span&gt;&lt;span style=&quot;text-wrap: nowrap;&quot;&gt;&lt;br&gt;&lt;/span&gt;&lt;/p&gt;&lt;p style=&quot;margin:0px;margin-left:4px;&quot;&gt;+ getChild(i:int):UnitaIF&lt;span style=&quot;text-wrap: nowrap;&quot;&gt;&lt;br&gt;&lt;/span&gt;&lt;/p&gt;&lt;p style=&quot;margin:0px;margin-left:4px;&quot;&gt;+ removeChild(unita:UnitaIF)&lt;br&gt;&lt;/p&gt;&lt;p style=&quot;margin:0px;margin-left:4px;&quot;&gt;+ getChildren():List&amp;lt;UnitaIF&amp;gt;&lt;br&gt;&lt;/p&gt;" style="verticalAlign=top;align=left;overflow=fill;html=1;whiteSpace=wrap;" vertex="1" parent="WIyWlLk6GJQsqaUBKTNV-1">
          <mxGeometry x="444" y="599" width="190" height="200" as="geometry" />
        </mxCell>
        <mxCell id="zX_m-3WCsw0XuXSlvTuy-2" value="&lt;p style=&quot;margin:0px;margin-top:4px;text-align:center;&quot;&gt;&lt;i&gt;&amp;lt;&amp;lt;Interface&amp;gt;&amp;gt;&lt;/i&gt;&lt;br&gt;&lt;b&gt;UnitaIF&lt;/b&gt;&lt;/p&gt;&lt;hr size=&quot;1&quot; style=&quot;border-style:solid;&quot;&gt;&lt;p style=&quot;margin:0px;margin-left:4px;&quot;&gt;&lt;/p&gt;&lt;p style=&quot;margin:0px;margin-left:4px;&quot;&gt;...&lt;/p&gt;&lt;p style=&quot;margin:0px;margin-left:4px;&quot;&gt;&lt;br&gt;&lt;/p&gt;&lt;p style=&quot;margin:0px;margin-left:4px;&quot;&gt;&lt;span style=&quot;text-wrap: nowrap;&quot;&gt;+ getNome():String&lt;/span&gt;&lt;br&gt;&lt;/p&gt;&lt;p style=&quot;margin:0px;margin-left:4px;&quot;&gt;&lt;span style=&quot;text-wrap: nowrap;&quot;&gt;+ setNome()&lt;/span&gt;&lt;span style=&quot;text-wrap: nowrap;&quot;&gt;&lt;br&gt;&lt;/span&gt;&lt;/p&gt;&lt;p style=&quot;margin:0px;margin-left:4px;&quot;&gt;&lt;span style=&quot;text-wrap: nowrap;&quot;&gt;+ addChild(unita:UnitaIF)&lt;/span&gt;&lt;span style=&quot;text-wrap: nowrap;&quot;&gt;&lt;br&gt;&lt;/span&gt;&lt;/p&gt;&lt;p style=&quot;margin:0px;margin-left:4px;&quot;&gt;+ removeChild(unita:UnitaIF)&lt;span style=&quot;text-wrap: nowrap;&quot;&gt;&lt;br&gt;&lt;/span&gt;&lt;/p&gt;&lt;p style=&quot;margin:0px;margin-left:4px;&quot;&gt;+ getChild(i:int):UnitaIF&lt;span style=&quot;text-wrap: nowrap;&quot;&gt;&lt;br&gt;&lt;/span&gt;&lt;/p&gt;" style="verticalAlign=top;align=left;overflow=fill;html=1;whiteSpace=wrap;" vertex="1" parent="WIyWlLk6GJQsqaUBKTNV-1">
          <mxGeometry x="319" y="371" width="190" height="157" as="geometry" />
        </mxCell>
      </root>
    </mxGraphModel>
  </diagram>
  <diagram id="zwyY6L2nezKvZ6c99CWX" name="Fase 2 - Pattern Observer">
    <mxGraphModel dx="1235" dy="731" grid="1" gridSize="10" guides="1" tooltips="1" connect="1" arrows="1" fold="1" page="1" pageScale="1" pageWidth="827" pageHeight="1169" math="0" shadow="0">
      <root>
        <mxCell id="0" />
        <mxCell id="1" parent="0" />
        <mxCell id="XbpROUw0ri3JfSk3u6la-35" value="" style="edgeStyle=orthogonalEdgeStyle;rounded=0;orthogonalLoop=1;jettySize=auto;html=1;startArrow=diamondThin;startFill=0;startSize=12;exitX=1;exitY=0.5;exitDx=0;exitDy=0;entryX=0;entryY=0.5;entryDx=0;entryDy=0;endArrow=open;endFill=0;" parent="1" source="wFXLG3sIARUn2MWzjP7r-20" target="wFXLG3sIARUn2MWzjP7r-26" edge="1">
          <mxGeometry relative="1" as="geometry">
            <mxPoint x="412" y="407" as="sourcePoint" />
            <mxPoint x="553" y="407" as="targetPoint" />
          </mxGeometry>
        </mxCell>
        <mxCell id="OfQ0PNb6QbK-MmwbjpDj-2" value="observers" style="edgeLabel;html=1;align=center;verticalAlign=middle;resizable=0;points=[];" parent="XbpROUw0ri3JfSk3u6la-35" vertex="1" connectable="0">
          <mxGeometry x="-0.4673" y="2" relative="1" as="geometry">
            <mxPoint y="-10" as="offset" />
          </mxGeometry>
        </mxCell>
        <mxCell id="XbpROUw0ri3JfSk3u6la-13" value="" style="endArrow=block;endSize=10;endFill=0;shadow=0;strokeWidth=1;rounded=0;curved=0;edgeStyle=elbowEdgeStyle;elbow=vertical;dashed=1;entryX=0.5;entryY=1;entryDx=0;entryDy=0;exitX=0.5;exitY=0;exitDx=0;exitDy=0;" parent="1" source="wFXLG3sIARUn2MWzjP7r-22" target="wFXLG3sIARUn2MWzjP7r-20" edge="1">
          <mxGeometry width="160" relative="1" as="geometry">
            <mxPoint x="135" y="572" as="sourcePoint" />
            <mxPoint x="230" y="480" as="targetPoint" />
            <Array as="points">
              <mxPoint x="200" y="540" />
            </Array>
          </mxGeometry>
        </mxCell>
        <mxCell id="XbpROUw0ri3JfSk3u6la-23" value="" style="endArrow=block;endSize=10;endFill=0;shadow=0;strokeWidth=1;rounded=0;curved=0;edgeStyle=elbowEdgeStyle;elbow=vertical;dashed=1;exitX=0.5;exitY=0;exitDx=0;exitDy=0;entryX=0.5;entryY=1;entryDx=0;entryDy=0;" parent="1" source="wFXLG3sIARUn2MWzjP7r-24" target="wFXLG3sIARUn2MWzjP7r-20" edge="1">
          <mxGeometry width="160" relative="1" as="geometry">
            <mxPoint x="354" y="573" as="sourcePoint" />
            <mxPoint x="239" y="481" as="targetPoint" />
            <Array as="points">
              <mxPoint x="300" y="540" />
            </Array>
          </mxGeometry>
        </mxCell>
        <mxCell id="dv5olnQWxSan3haJfNEE-3" value="" style="edgeStyle=orthogonalEdgeStyle;rounded=0;orthogonalLoop=1;jettySize=auto;html=1;entryX=0.511;entryY=0;entryDx=0;entryDy=0;exitX=0.5;exitY=1;exitDx=0;exitDy=0;endArrow=none;endFill=0;startArrow=block;startFill=0;dashed=1;entryPerimeter=0;" parent="1" source="wFXLG3sIARUn2MWzjP7r-26" target="cPAPYcfW4mj2ZW5Q-SIM-6" edge="1">
          <mxGeometry relative="1" as="geometry">
            <mxPoint x="623" y="490" as="sourcePoint" />
            <mxPoint x="638" y="740" as="targetPoint" />
          </mxGeometry>
        </mxCell>
        <mxCell id="wFXLG3sIARUn2MWzjP7r-20" value="&lt;p style=&quot;margin:0px;margin-top:4px;text-align:center;&quot;&gt;&lt;i&gt;&amp;lt;&amp;lt;Interface&amp;gt;&amp;gt;&lt;/i&gt;&lt;br&gt;&lt;b&gt;UnitaIF&lt;/b&gt;&lt;/p&gt;&lt;hr size=&quot;1&quot; style=&quot;border-style:solid;&quot;&gt;&lt;p style=&quot;margin:0px;margin-left:4px;&quot;&gt;&lt;/p&gt;&lt;p style=&quot;margin:0px;margin-left:4px;&quot;&gt;...&lt;/p&gt;&lt;p style=&quot;margin:0px;margin-left:4px;&quot;&gt;&lt;br&gt;&lt;/p&gt;&lt;p style=&quot;margin:0px;margin-left:4px;&quot;&gt;+ attach(obs:Observer)&lt;br&gt;+ detach(obs:Observer)&lt;/p&gt;&lt;p style=&quot;margin:0px;margin-left:4px;&quot;&gt;+ notifyObservers()&lt;/p&gt;" style="verticalAlign=top;align=left;overflow=fill;html=1;whiteSpace=wrap;" parent="1" vertex="1">
          <mxGeometry x="145" y="344" width="190" height="126" as="geometry" />
        </mxCell>
        <mxCell id="wFXLG3sIARUn2MWzjP7r-22" value="&lt;p style=&quot;margin:0px;margin-top:4px;text-align:center;&quot;&gt;&lt;b&gt;UnitaIF&lt;/b&gt;&lt;/p&gt;&lt;hr size=&quot;1&quot; style=&quot;border-style:solid;&quot;&gt;&lt;p style=&quot;margin:0px;margin-left:4px;&quot;&gt;&lt;/p&gt;&lt;p style=&quot;margin:0px;margin-left:4px;&quot;&gt;...&lt;/p&gt;" style="verticalAlign=top;align=left;overflow=fill;html=1;whiteSpace=wrap;" parent="1" vertex="1">
          <mxGeometry x="64" y="587.5" width="161" height="55" as="geometry" />
        </mxCell>
        <mxCell id="wFXLG3sIARUn2MWzjP7r-24" value="&lt;p style=&quot;margin:0px;margin-top:4px;text-align:center;&quot;&gt;&lt;b&gt;OrganoGestione&lt;/b&gt;&lt;/p&gt;&lt;hr size=&quot;1&quot; style=&quot;border-style:solid;&quot;&gt;&lt;p style=&quot;margin:0px;margin-left:4px;&quot;&gt;&lt;/p&gt;&lt;p style=&quot;margin:0px;margin-left:4px;&quot;&gt;...&lt;/p&gt;" style="verticalAlign=top;align=left;overflow=fill;html=1;whiteSpace=wrap;" parent="1" vertex="1">
          <mxGeometry x="265" y="587.5" width="161" height="55" as="geometry" />
        </mxCell>
        <mxCell id="wFXLG3sIARUn2MWzjP7r-26" value="&lt;p style=&quot;margin:0px;margin-top:4px;text-align:center;&quot;&gt;&lt;i&gt;&amp;lt;&amp;lt;Interface&amp;gt;&amp;gt;&lt;/i&gt;&lt;br&gt;&lt;b&gt;Observer&lt;/b&gt;&lt;/p&gt;&lt;hr size=&quot;1&quot; style=&quot;border-style:solid;&quot;&gt;&lt;p style=&quot;margin:0px;margin-left:4px;&quot;&gt;&lt;/p&gt;&lt;p style=&quot;margin:0px;margin-left:4px;&quot;&gt;&lt;span style=&quot;color: rgba(0, 0, 0, 0); font-family: monospace; font-size: 0px; text-wrap: nowrap;&quot;&gt;%3CmxGraphModel%3E%3Croot%3E%3CmxCell%20id%3D%220%22%2F%3E%3CmxCell%20id%3D%221%22%20parent%3D%220%22%2F%3E%3CmxCell%20id%3D%222%22%20value%3D%22%26lt%3Bp%20style%3D%26quot%3Bmargin%3A0px%3Bmargin-top%3A4px%3Btext-align%3Acenter%3B%26quot%3B%26gt%3B%26lt%3Bi%26gt%3B%26amp%3Blt%3B%26amp%3Blt%3BInterface%26amp%3Bgt%3B%26amp%3Bgt%3B%26lt%3B%2Fi%26gt%3B%26lt%3Bbr%26gt%3B%26lt%3Bb%26gt%3BUnitaIF%26lt%3B%2Fb%26gt%3B%26lt%3B%2Fp%26gt%3B%26lt%3Bhr%20size%3D%26quot%3B1%26quot%3B%20style%3D%26quot%3Bborder-style%3Asolid%3B%26quot%3B%26gt%3B%26lt%3Bp%20style%3D%26quot%3Bmargin%3A0px%3Bmargin-left%3A4px%3B%26quot%3B%26gt%3B%26lt%3B%2Fp%26gt%3B%26lt%3Bp%20style%3D%26quot%3Bmargin%3A0px%3Bmargin-left%3A4px%3B%26quot%3B%26gt%3B...%26lt%3B%2Fp%26gt%3B%26lt%3Bp%20style%3D%26quot%3Bmargin%3A0px%3Bmargin-left%3A4px%3B%26quot%3B%26gt%3B%26lt%3Bbr%26gt%3B%26lt%3B%2Fp%26gt%3B%26lt%3Bp%20style%3D%26quot%3Bmargin%3A0px%3Bmargin-left%3A4px%3B%26quot%3B%26gt%3B%2B%20attach(obs%3AObserver)%26lt%3Bbr%26gt%3B%2B%20detach(obs%3AObserver)%26lt%3B%2Fp%26gt%3B%26lt%3Bp%20style%3D%26quot%3Bmargin%3A0px%3Bmargin-left%3A4px%3B%26quot%3B%26gt%3B%2B%20notify()%26lt%3B%2Fp%26gt%3B%22%20style%3D%22verticalAlign%3Dtop%3Balign%3Dleft%3Boverflow%3Dfill%3Bhtml%3D1%3BwhiteSpace%3Dwrap%3B%22%20vertex%3D%221%22%20parent%3D%221%22%3E%3CmxGeometry%20x%3D%22310%22%20y%3D%22364%22%20width%3D%22190%22%20height%3D%22126%22%20as%3D%22geometry%22%2F%3E%3C%2FmxCell%3E%3C%2Froot%3E%3C%2FmxGraphModel%3E&lt;/span&gt;&lt;span style=&quot;text-wrap: nowrap; background-color: initial;&quot;&gt;+ update(unita:UnitaIF)&lt;/span&gt;&lt;span style=&quot;background-color: initial; color: rgba(0, 0, 0, 0); font-family: monospace; font-size: 0px; text-wrap: nowrap;&quot;&gt;3CmxGraphModel%3E%3Croot%3E%3CmxCell%20id%3D%220%22%2F%3E%3CmxCell%20id%3D%221%22%20parent%3D%220%22%2F%3E%3CmxCell%20id%3D%222%22%20value%3D%22%26lt%3Bp%20style%3D%26quot%3Bmargin%3A0px%3Bmargin-top%3A4px%3Btext-align%3Acenter%3B%26quot%3B%26gt%3B%26lt%3Bi%26gt%3B%26amp%3Blt%3B%26amp%3Blt%3BInterface%26amp%3Bgt%3B%26amp%3Bgt%3B%26lt%3B%2Fi%26gt%3B%26lt%3Bbr%26gt%3B%26lt%3Bb%26gt%3BUnitaIF%26lt%3B%2Fb%26gt%3B%26lt%3B%2Fp%26gt%3B%26lt%3Bhr%20size%3D%26quot%3B1%26quot%3B%20style%3D%26quot%3Bborder-style%3Asolid%3B%26quot%3B%26gt%3B%26lt%3Bp%20style%3D%26quot%3Bmargin%3A0px%3Bmargin-left%3A4px%3B%26quot%3B%26gt%3B%26lt%3B%2Fp%26gt%3B%26lt%3Bp%20style%3D%26quot%3Bmargin%3A0px%3Bmargin-left%3A4px%3B%26quot%3B%26gt%3B...%26lt%3B%2Fp%26gt%3B%26lt%3Bp%20style%3D%26quot%3Bmargin%3A0px%3Bmargin-left%3A4px%3B%26quot%3B%26gt%3B%26lt%3Bbr%26gt%3B%26lt%3B%2Fp%26gt%3B%26lt%3Bp%20style%3D%26quot%3Bmargin%3A0px%3Bmargin-left%3A4px%3B%26quot%3B%26gt%3B%2B%20attach(obs%3AObserver)%26lt%3Bbr%26gt%3B%2B%20detach(obs%3AObserver)%26lt%3B%2Fp%26gt%3B%26lt%3Bp%20style%3D%26quot%3Bmargin%3A0px%3Bmargin-left%3A4px%3B%26quot%3B%26gt%3B%2B%20notify()%26lt%3B%2Fp%26gt%3B%22%20style%3D%22verticalAlign%3Dtop%3Balign%3Dleft%3Boverflow%3Dfill%3Bhtml%3D1%3BwhiteSpace%3Dwrap%3B%22%20vertex%3D%221%22%20parent%3D%221%22%3E%3CmxGeometry%20x%3D%22310%22%20y%3D%22364%22%20width%3D%22190%22%20height%3D%22126%22%20as%3D%22geometry%22%2F%3E%3C%2FmxCell%3E%3C%2Froot%3E%3C%2FmxGraphModel%3E&lt;/span&gt;&lt;/p&gt;" style="verticalAlign=top;align=left;overflow=fill;html=1;whiteSpace=wrap;" parent="1" vertex="1">
          <mxGeometry x="543" y="367" width="190" height="80" as="geometry" />
        </mxCell>
        <mxCell id="0oYCy4152d5tk_tsPEsI-1" value="for all o in observers {&lt;div style=&quot;font-size: 12px;&quot;&gt;&amp;nbsp; &amp;nbsp; o.update(this)&lt;/div&gt;&lt;div style=&quot;font-size: 12px;&quot;&gt;}&lt;/div&gt;" style="shape=note2;boundedLbl=1;whiteSpace=wrap;html=1;size=17;verticalAlign=middle;align=left;fontSize=12;spacing=8;" parent="1" vertex="1">
          <mxGeometry x="426" y="470" width="160" height="60" as="geometry" />
        </mxCell>
        <mxCell id="OfQ0PNb6QbK-MmwbjpDj-1" style="edgeStyle=orthogonalEdgeStyle;rounded=0;orthogonalLoop=1;jettySize=auto;html=1;endArrow=none;endFill=0;dashed=1;exitX=0;exitY=0.5;exitDx=0;exitDy=0;exitPerimeter=0;entryX=0.626;entryY=0.881;entryDx=0;entryDy=0;entryPerimeter=0;" parent="1" source="0oYCy4152d5tk_tsPEsI-1" target="wFXLG3sIARUn2MWzjP7r-20" edge="1">
          <mxGeometry relative="1" as="geometry">
            <mxPoint x="364" y="455" as="sourcePoint" />
            <Array as="points">
              <mxPoint x="370" y="500" />
              <mxPoint x="370" y="455" />
            </Array>
          </mxGeometry>
        </mxCell>
        <mxCell id="fYGQK_he9FBjWMky9xGV-1" value="Il ConcreteObserver sarà un elemento&amp;nbsp;&lt;div&gt;grafico che dovrà essere avvisato&amp;nbsp;&lt;/div&gt;&lt;div&gt;dei cambiamenti&lt;/div&gt;" style="text;html=1;align=left;verticalAlign=middle;resizable=0;points=[];autosize=1;strokeColor=none;fillColor=none;" parent="1" vertex="1">
          <mxGeometry x="440" y="1010" width="230" height="60" as="geometry" />
        </mxCell>
        <mxCell id="7x5E-cs_1hSH6AEnqLN9-1" value="&lt;h1 style=&quot;margin-top: 0px;&quot;&gt;Fase 2: Integrazione del pattern Observer&lt;/h1&gt;&lt;p&gt;Essendo richiesta l&#39;implementazione di un&#39;interfaccia grafica, implemento il pattern Observer per notificare, in un secondo momento, i cambiamenti alla struttura dati a chi gestisce la visualizzazione di tale struttura.&lt;/p&gt;&lt;p&gt;N.B.: stiamo usando il pattern Observer per un osservatore con più subjects&lt;/p&gt;" style="text;html=1;whiteSpace=wrap;overflow=hidden;rounded=0;" parent="1" vertex="1">
          <mxGeometry x="80" y="80" width="680" height="120" as="geometry" />
        </mxCell>
        <mxCell id="oklzYUR6lVe_oUXABhqP-2" value="u.attach(this)" style="shape=note2;boundedLbl=1;whiteSpace=wrap;html=1;size=17;verticalAlign=middle;align=left;fontSize=12;spacing=8;" parent="1" vertex="1">
          <mxGeometry x="470" y="890" width="134" height="60" as="geometry" />
        </mxCell>
        <mxCell id="G9vArkuZTmPZGnFocUjc-1" value="" style="endArrow=open;html=1;rounded=0;exitX=0.75;exitY=0;exitDx=0;exitDy=0;entryX=1;entryY=0.761;entryDx=0;entryDy=0;endFill=0;startArrow=diamond;startFill=0;startSize=12;entryPerimeter=0;" parent="1" source="wFXLG3sIARUn2MWzjP7r-24" target="wFXLG3sIARUn2MWzjP7r-20" edge="1">
          <mxGeometry width="50" height="50" relative="1" as="geometry">
            <mxPoint x="404" y="575" as="sourcePoint" />
            <mxPoint x="335" y="440" as="targetPoint" />
            <Array as="points">
              <mxPoint x="386" y="440" />
            </Array>
          </mxGeometry>
        </mxCell>
        <mxCell id="G9vArkuZTmPZGnFocUjc-2" value="children" style="edgeLabel;html=1;align=center;verticalAlign=middle;resizable=0;points=[];" parent="G9vArkuZTmPZGnFocUjc-1" vertex="1" connectable="0">
          <mxGeometry x="-0.7207" y="-1" relative="1" as="geometry">
            <mxPoint x="20" y="-1" as="offset" />
          </mxGeometry>
        </mxCell>
        <mxCell id="cPAPYcfW4mj2ZW5Q-SIM-5" style="edgeStyle=orthogonalEdgeStyle;rounded=0;orthogonalLoop=1;jettySize=auto;html=1;endArrow=block;endFill=0;dashed=1;" parent="1" source="cPAPYcfW4mj2ZW5Q-SIM-2" target="wFXLG3sIARUn2MWzjP7r-26" edge="1">
          <mxGeometry relative="1" as="geometry">
            <Array as="points">
              <mxPoint x="420" y="680" />
              <mxPoint x="638" y="680" />
            </Array>
          </mxGeometry>
        </mxCell>
        <mxCell id="cPAPYcfW4mj2ZW5Q-SIM-2" value="&lt;p style=&quot;margin:0px;margin-top:4px;text-align:center;&quot;&gt;&lt;b&gt;ElencoDipendenti&lt;/b&gt;&lt;/p&gt;&lt;hr size=&quot;1&quot; style=&quot;border-style:solid;&quot;&gt;&lt;p style=&quot;margin:0px;margin-left:4px;&quot;&gt;&lt;span style=&quot;text-wrap: nowrap;&quot;&gt;- u:Unita&lt;/span&gt;&lt;/p&gt;&lt;hr&gt;&lt;p style=&quot;margin:0px;margin-left:4px;&quot;&gt;&lt;span style=&quot;background-color: initial; text-wrap: nowrap;&quot;&gt;...&lt;/span&gt;&lt;/p&gt;&lt;p style=&quot;margin:0px;margin-left:4px;&quot;&gt;&lt;span style=&quot;background-color: initial; text-wrap: nowrap;&quot;&gt;&lt;br&gt;&lt;/span&gt;&lt;/p&gt;&lt;p style=&quot;margin:0px;margin-left:4px;&quot;&gt;&lt;span style=&quot;background-color: initial; text-wrap: nowrap;&quot;&gt;+ update(unita:UnitaIF)&lt;/span&gt;&lt;br&gt;&lt;/p&gt;" style="verticalAlign=top;align=left;overflow=fill;html=1;whiteSpace=wrap;" parent="1" vertex="1">
          <mxGeometry x="325" y="740" width="190" height="110" as="geometry" />
        </mxCell>
        <mxCell id="cPAPYcfW4mj2ZW5Q-SIM-6" value="&lt;p style=&quot;margin:0px;margin-top:4px;text-align:center;&quot;&gt;&lt;b&gt;ViewPanel&lt;/b&gt;&lt;/p&gt;&lt;hr size=&quot;1&quot; style=&quot;border-style:solid;&quot;&gt;&lt;p style=&quot;margin:0px;margin-left:4px;&quot;&gt;&lt;span style=&quot;text-wrap: nowrap;&quot;&gt;- u:Unita&lt;/span&gt;&lt;/p&gt;&lt;hr&gt;&lt;p style=&quot;margin:0px;margin-left:4px;&quot;&gt;&lt;span style=&quot;background-color: initial; text-wrap: nowrap;&quot;&gt;...&lt;/span&gt;&lt;/p&gt;&lt;p style=&quot;margin:0px;margin-left:4px;&quot;&gt;&lt;span style=&quot;background-color: initial; text-wrap: nowrap;&quot;&gt;&lt;br&gt;&lt;/span&gt;&lt;/p&gt;&lt;p style=&quot;margin:0px;margin-left:4px;&quot;&gt;&lt;span style=&quot;background-color: initial; text-wrap: nowrap;&quot;&gt;+ update(unita:UnitaIF)&lt;/span&gt;&lt;br&gt;&lt;/p&gt;" style="verticalAlign=top;align=left;overflow=fill;html=1;whiteSpace=wrap;" parent="1" vertex="1">
          <mxGeometry x="541" y="740" width="190" height="110" as="geometry" />
        </mxCell>
        <mxCell id="cPAPYcfW4mj2ZW5Q-SIM-8" style="edgeStyle=orthogonalEdgeStyle;rounded=0;orthogonalLoop=1;jettySize=auto;html=1;dashed=1;endArrow=none;endFill=0;entryX=0.837;entryY=0.636;entryDx=0;entryDy=0;entryPerimeter=0;" parent="1" source="oklzYUR6lVe_oUXABhqP-2" target="cPAPYcfW4mj2ZW5Q-SIM-6" edge="1">
          <mxGeometry relative="1" as="geometry" />
        </mxCell>
        <mxCell id="cPAPYcfW4mj2ZW5Q-SIM-7" style="edgeStyle=orthogonalEdgeStyle;rounded=0;orthogonalLoop=1;jettySize=auto;html=1;dashed=1;endArrow=none;endFill=0;entryX=0.816;entryY=0.636;entryDx=0;entryDy=0;entryPerimeter=0;" parent="1" source="oklzYUR6lVe_oUXABhqP-2" target="cPAPYcfW4mj2ZW5Q-SIM-2" edge="1">
          <mxGeometry relative="1" as="geometry" />
        </mxCell>
        <mxCell id="cPAPYcfW4mj2ZW5Q-SIM-9" value="ElencoDipendenti si trova&lt;div&gt;all&#39;interno di EditUnitaWindow&lt;/div&gt;" style="text;html=1;align=left;verticalAlign=middle;resizable=0;points=[];autosize=1;strokeColor=none;fillColor=none;" parent="1" vertex="1">
          <mxGeometry x="246" y="870" width="180" height="40" as="geometry" />
        </mxCell>
      </root>
    </mxGraphModel>
  </diagram>
  <diagram id="KEx9UnDb_ibtE7nL0ZNn" name="Fase 3 - Pattern Iterator">
    <mxGraphModel dx="1050" dy="621" grid="1" gridSize="10" guides="1" tooltips="1" connect="1" arrows="1" fold="1" page="1" pageScale="1" pageWidth="827" pageHeight="1169" math="0" shadow="0">
      <root>
        <mxCell id="0" />
        <mxCell id="1" parent="0" />
        <mxCell id="kz4GFzzcJdeqb-c4I7S4-2" value="" style="endArrow=block;endSize=10;endFill=0;shadow=0;strokeWidth=1;rounded=0;curved=0;edgeStyle=elbowEdgeStyle;elbow=vertical;dashed=1;entryX=0.5;entryY=1;entryDx=0;entryDy=0;exitX=0.5;exitY=0;exitDx=0;exitDy=0;" parent="1" source="kz4GFzzcJdeqb-c4I7S4-5" target="kz4GFzzcJdeqb-c4I7S4-4" edge="1">
          <mxGeometry width="160" relative="1" as="geometry">
            <mxPoint x="157" y="607" as="sourcePoint" />
            <mxPoint x="252" y="515" as="targetPoint" />
          </mxGeometry>
        </mxCell>
        <mxCell id="kz4GFzzcJdeqb-c4I7S4-3" value="" style="endArrow=block;endSize=10;endFill=0;shadow=0;strokeWidth=1;rounded=0;curved=0;edgeStyle=elbowEdgeStyle;elbow=vertical;dashed=1;exitX=0.5;exitY=0;exitDx=0;exitDy=0;" parent="1" source="kz4GFzzcJdeqb-c4I7S4-6" target="kz4GFzzcJdeqb-c4I7S4-4" edge="1">
          <mxGeometry width="160" relative="1" as="geometry">
            <mxPoint x="376" y="608" as="sourcePoint" />
            <mxPoint x="261" y="516" as="targetPoint" />
          </mxGeometry>
        </mxCell>
        <mxCell id="kz4GFzzcJdeqb-c4I7S4-4" value="&lt;p style=&quot;margin:0px;margin-top:4px;text-align:center;&quot;&gt;&lt;i&gt;&amp;lt;&amp;lt;Interface&amp;gt;&amp;gt;&lt;/i&gt;&lt;br&gt;&lt;b&gt;UnitaIF&lt;/b&gt;&lt;/p&gt;&lt;hr size=&quot;1&quot; style=&quot;border-style:solid;&quot;&gt;&lt;p style=&quot;margin:0px;margin-left:4px;&quot;&gt;&lt;/p&gt;&lt;p style=&quot;margin:0px;margin-left:4px;&quot;&gt;...&lt;/p&gt;&lt;p style=&quot;margin:0px;margin-left:4px;&quot;&gt;&lt;br&gt;&lt;/p&gt;&lt;p style=&quot;margin:0px;margin-left:4px;&quot;&gt;+ iterator():Iterator&lt;/p&gt;" style="verticalAlign=top;align=left;overflow=fill;html=1;whiteSpace=wrap;" parent="1" vertex="1">
          <mxGeometry x="167" y="379" width="190" height="100" as="geometry" />
        </mxCell>
        <mxCell id="kz4GFzzcJdeqb-c4I7S4-5" value="&lt;p style=&quot;margin:0px;margin-top:4px;text-align:center;&quot;&gt;&lt;b&gt;UnitaIF&lt;/b&gt;&lt;/p&gt;&lt;hr size=&quot;1&quot; style=&quot;border-style:solid;&quot;&gt;&lt;p style=&quot;margin:0px;margin-left:4px;&quot;&gt;&lt;/p&gt;&lt;p style=&quot;margin:0px;margin-left:4px;&quot;&gt;...&lt;/p&gt;&lt;p style=&quot;margin:0px;margin-left:4px;&quot;&gt;&lt;br&gt;&lt;/p&gt;&lt;p style=&quot;margin:0px;margin-left:4px;&quot;&gt;+ iterator():Iterator&lt;br&gt;&lt;/p&gt;" style="verticalAlign=top;align=left;overflow=fill;html=1;whiteSpace=wrap;" parent="1" vertex="1">
          <mxGeometry x="81" y="579" width="161" height="89" as="geometry" />
        </mxCell>
        <mxCell id="kz4GFzzcJdeqb-c4I7S4-6" value="&lt;p style=&quot;margin:0px;margin-top:4px;text-align:center;&quot;&gt;&lt;b&gt;OrganoGestione&lt;/b&gt;&lt;/p&gt;&lt;hr size=&quot;1&quot; style=&quot;border-style:solid;&quot;&gt;&lt;p style=&quot;margin:0px;margin-left:4px;&quot;&gt;&lt;/p&gt;&lt;p style=&quot;margin:0px;margin-left:4px;&quot;&gt;...&lt;/p&gt;&lt;p style=&quot;margin:0px;margin-left:4px;&quot;&gt;&lt;br&gt;&lt;/p&gt;&lt;p style=&quot;margin:0px;margin-left:4px;&quot;&gt;+ iterator():Iterator&lt;/p&gt;" style="verticalAlign=top;align=left;overflow=fill;html=1;whiteSpace=wrap;" parent="1" vertex="1">
          <mxGeometry x="282" y="579" width="161" height="89" as="geometry" />
        </mxCell>
        <mxCell id="kz4GFzzcJdeqb-c4I7S4-9" style="edgeStyle=orthogonalEdgeStyle;rounded=0;orthogonalLoop=1;jettySize=auto;html=1;endArrow=none;endFill=0;dashed=1;entryX=0.739;entryY=0.775;entryDx=0;entryDy=0;entryPerimeter=0;" parent="1" source="kz4GFzzcJdeqb-c4I7S4-7" target="kz4GFzzcJdeqb-c4I7S4-6" edge="1">
          <mxGeometry relative="1" as="geometry">
            <mxPoint x="391" y="688" as="targetPoint" />
            <Array as="points">
              <mxPoint x="307" y="688" />
              <mxPoint x="421" y="688" />
              <mxPoint x="421" y="648" />
            </Array>
          </mxGeometry>
        </mxCell>
        <mxCell id="kz4GFzzcJdeqb-c4I7S4-7" value="return new DepthFirstIterator(this)" style="shape=note2;boundedLbl=1;whiteSpace=wrap;html=1;size=17;verticalAlign=middle;align=left;fontSize=12;spacing=8;" parent="1" vertex="1">
          <mxGeometry x="207" y="708" width="200" height="40" as="geometry" />
        </mxCell>
        <mxCell id="kz4GFzzcJdeqb-c4I7S4-8" style="edgeStyle=orthogonalEdgeStyle;rounded=0;orthogonalLoop=1;jettySize=auto;html=1;endArrow=none;endFill=0;dashed=1;exitX=0.5;exitY=0;exitDx=0;exitDy=0;exitPerimeter=0;entryX=0.745;entryY=0.775;entryDx=0;entryDy=0;entryPerimeter=0;" parent="1" source="kz4GFzzcJdeqb-c4I7S4-7" target="kz4GFzzcJdeqb-c4I7S4-5" edge="1">
          <mxGeometry relative="1" as="geometry">
            <mxPoint x="381" y="459" as="sourcePoint" />
            <mxPoint x="201" y="648" as="targetPoint" />
            <Array as="points">
              <mxPoint x="307" y="688" />
              <mxPoint x="261" y="688" />
              <mxPoint x="261" y="649" />
              <mxPoint x="201" y="649" />
            </Array>
          </mxGeometry>
        </mxCell>
        <mxCell id="kz4GFzzcJdeqb-c4I7S4-10" value="&lt;p style=&quot;margin:0px;margin-top:4px;text-align:center;&quot;&gt;&lt;i&gt;&amp;lt;&amp;lt;Interface&amp;gt;&amp;gt;&lt;/i&gt;&lt;br&gt;&lt;b&gt;Iterator&lt;/b&gt;&lt;/p&gt;&lt;hr size=&quot;1&quot; style=&quot;border-style:solid;&quot;&gt;&lt;p style=&quot;margin:0px;margin-left:4px;&quot;&gt;&lt;/p&gt;&lt;p style=&quot;margin:0px;margin-left:4px;&quot;&gt;...&lt;/p&gt;&lt;p style=&quot;margin:0px;margin-left:4px;&quot;&gt;&lt;br&gt;&lt;/p&gt;&lt;p style=&quot;margin:0px;margin-left:4px;&quot;&gt;+ next():T&lt;/p&gt;&lt;p style=&quot;margin:0px;margin-left:4px;&quot;&gt;+ hasNext():boolean&lt;/p&gt;&lt;p style=&quot;margin:0px;margin-left:4px;&quot;&gt;+ currentItem():T&lt;/p&gt;" style="verticalAlign=top;align=left;overflow=fill;html=1;whiteSpace=wrap;" parent="1" vertex="1">
          <mxGeometry x="556" y="379" width="190" height="130" as="geometry" />
        </mxCell>
        <mxCell id="kz4GFzzcJdeqb-c4I7S4-12" style="edgeStyle=orthogonalEdgeStyle;rounded=0;orthogonalLoop=1;jettySize=auto;html=1;dashed=1;endArrow=block;endFill=0;endSize=10;" parent="1" source="kz4GFzzcJdeqb-c4I7S4-11" target="kz4GFzzcJdeqb-c4I7S4-10" edge="1">
          <mxGeometry relative="1" as="geometry" />
        </mxCell>
        <mxCell id="kz4GFzzcJdeqb-c4I7S4-20" style="edgeStyle=orthogonalEdgeStyle;rounded=0;orthogonalLoop=1;jettySize=auto;html=1;entryX=0.5;entryY=1;entryDx=0;entryDy=0;endArrow=open;endFill=0;" parent="1" source="kz4GFzzcJdeqb-c4I7S4-11" target="kz4GFzzcJdeqb-c4I7S4-5" edge="1">
          <mxGeometry relative="1" as="geometry">
            <Array as="points">
              <mxPoint x="651" y="789" />
              <mxPoint x="162" y="789" />
            </Array>
          </mxGeometry>
        </mxCell>
        <mxCell id="kz4GFzzcJdeqb-c4I7S4-11" value="&lt;p style=&quot;margin:0px;margin-top:4px;text-align:center;&quot;&gt;&lt;b&gt;DepthFirstIterator&lt;/b&gt;&lt;/p&gt;&lt;hr size=&quot;1&quot; style=&quot;border-style:solid;&quot;&gt;&lt;p style=&quot;margin:0px;margin-left:4px;&quot;&gt;&lt;/p&gt;&lt;p style=&quot;margin:0px;margin-left:4px;&quot;&gt;...&lt;/p&gt;&lt;p style=&quot;margin:0px;margin-left:4px;&quot;&gt;&lt;br&gt;&lt;/p&gt;&lt;p style=&quot;margin: 0px 0px 0px 4px;&quot;&gt;+ next():T&lt;/p&gt;&lt;p style=&quot;margin: 0px 0px 0px 4px;&quot;&gt;+ hasNext():boolean&lt;/p&gt;&lt;p style=&quot;margin: 0px 0px 0px 4px;&quot;&gt;+ currentItem():T&lt;/p&gt;" style="verticalAlign=top;align=left;overflow=fill;html=1;whiteSpace=wrap;" parent="1" vertex="1">
          <mxGeometry x="556" y="579" width="190" height="110" as="geometry" />
        </mxCell>
        <mxCell id="kz4GFzzcJdeqb-c4I7S4-16" style="edgeStyle=orthogonalEdgeStyle;rounded=0;orthogonalLoop=1;jettySize=auto;html=1;exitX=0;exitY=0.75;exitDx=0;exitDy=0;entryX=0.997;entryY=0.928;entryDx=0;entryDy=0;entryPerimeter=0;endArrow=open;endFill=0;" parent="1" source="kz4GFzzcJdeqb-c4I7S4-11" target="kz4GFzzcJdeqb-c4I7S4-6" edge="1">
          <mxGeometry relative="1" as="geometry" />
        </mxCell>
        <mxCell id="kz4GFzzcJdeqb-c4I7S4-18" style="edgeStyle=orthogonalEdgeStyle;rounded=0;orthogonalLoop=1;jettySize=auto;html=1;exitX=0.001;exitY=0.635;exitDx=0;exitDy=0;entryX=0.998;entryY=0.795;entryDx=0;entryDy=0;entryPerimeter=0;endArrow=none;endFill=0;exitPerimeter=0;startArrow=open;startFill=0;dashed=1;" parent="1" source="kz4GFzzcJdeqb-c4I7S4-11" target="kz4GFzzcJdeqb-c4I7S4-6" edge="1">
          <mxGeometry relative="1" as="geometry">
            <mxPoint x="556" y="649" as="sourcePoint" />
            <mxPoint x="443" y="649" as="targetPoint" />
          </mxGeometry>
        </mxCell>
        <mxCell id="kz4GFzzcJdeqb-c4I7S4-19" value="creates" style="edgeLabel;html=1;align=center;verticalAlign=middle;resizable=0;points=[];" parent="kz4GFzzcJdeqb-c4I7S4-18" vertex="1" connectable="0">
          <mxGeometry x="-0.2087" y="1" relative="1" as="geometry">
            <mxPoint x="-15" y="-11" as="offset" />
          </mxGeometry>
        </mxCell>
        <mxCell id="kz4GFzzcJdeqb-c4I7S4-21" style="edgeStyle=orthogonalEdgeStyle;rounded=0;orthogonalLoop=1;jettySize=auto;html=1;entryX=0.423;entryY=1.002;entryDx=0;entryDy=0;entryPerimeter=0;dashed=1;endArrow=open;endFill=0;exitX=0.59;exitY=1.001;exitDx=0;exitDy=0;exitPerimeter=0;" parent="1" source="kz4GFzzcJdeqb-c4I7S4-5" target="kz4GFzzcJdeqb-c4I7S4-11" edge="1">
          <mxGeometry relative="1" as="geometry">
            <mxPoint x="176" y="669" as="sourcePoint" />
            <Array as="points">
              <mxPoint x="176" y="779" />
              <mxPoint x="636" y="779" />
            </Array>
          </mxGeometry>
        </mxCell>
        <mxCell id="kz4GFzzcJdeqb-c4I7S4-23" value="creates" style="edgeLabel;html=1;align=center;verticalAlign=middle;resizable=0;points=[];" parent="kz4GFzzcJdeqb-c4I7S4-21" vertex="1" connectable="0">
          <mxGeometry x="0.0841" relative="1" as="geometry">
            <mxPoint y="-10" as="offset" />
          </mxGeometry>
        </mxCell>
        <mxCell id="-P31Z1p1477i0XxdUGL0-1" value="&lt;h1 style=&quot;margin-top: 0px;&quot;&gt;Fase 3: Integrazione del pattern Iterator&lt;/h1&gt;&lt;p&gt;Questo pattern è utile in questo contesto inquanto permette di definire un iteratore per scorrere la struttura che abbiamo definito prima. Essendo una struttura ad albero, implemento l&#39;iteratore sfruttando una ricerca in profondità.&lt;/p&gt;" style="text;html=1;whiteSpace=wrap;overflow=hidden;rounded=0;" parent="1" vertex="1">
          <mxGeometry x="80" y="80" width="680" height="120" as="geometry" />
        </mxCell>
        <mxCell id="NJKNWJpzEO_RxyXSsOn7-1" value="" style="endArrow=open;html=1;rounded=0;exitX=0.896;exitY=0.001;exitDx=0;exitDy=0;entryX=0.999;entryY=0.646;entryDx=0;entryDy=0;endFill=0;startArrow=diamond;startFill=0;startSize=12;exitPerimeter=0;entryPerimeter=0;" parent="1" source="kz4GFzzcJdeqb-c4I7S4-6" target="kz4GFzzcJdeqb-c4I7S4-4" edge="1">
          <mxGeometry width="50" height="50" relative="1" as="geometry">
            <mxPoint x="426" y="579" as="sourcePoint" />
            <mxPoint x="357" y="444" as="targetPoint" />
            <Array as="points">
              <mxPoint x="427" y="444" />
            </Array>
          </mxGeometry>
        </mxCell>
        <mxCell id="NJKNWJpzEO_RxyXSsOn7-2" value="children" style="edgeLabel;html=1;align=center;verticalAlign=middle;resizable=0;points=[];" parent="NJKNWJpzEO_RxyXSsOn7-1" vertex="1" connectable="0">
          <mxGeometry x="-0.7207" y="-1" relative="1" as="geometry">
            <mxPoint x="23" y="-11" as="offset" />
          </mxGeometry>
        </mxCell>
      </root>
    </mxGraphModel>
  </diagram>
  <diagram id="K_oU_XFY5ItpfsTypdc4" name="Parte 4 - Pattern Visitor">
    <mxGraphModel dx="1050" dy="621" grid="1" gridSize="10" guides="1" tooltips="1" connect="1" arrows="1" fold="1" page="1" pageScale="1" pageWidth="827" pageHeight="1169" math="0" shadow="0">
      <root>
        <mxCell id="0" />
        <mxCell id="1" parent="0" />
        <mxCell id="umTGsmcpG36OK73LQrVS-1" value="&lt;h1 style=&quot;margin-top: 0px;&quot;&gt;Fase 4: Integrazione del pattern Visitor&lt;/h1&gt;&lt;p&gt;Dovendo&amp;nbsp;&lt;span style=&quot;background-color: initial;&quot;&gt;implementare una soluzione che permette di salvare l&#39;organigramma in memoria&lt;/span&gt;&lt;span style=&quot;background-color: initial;&quot;&gt;, su richiesta della traccia, decido di usare il pattern visitor per creare una stringa formattata secondo i canoni del linguaggio XML, il quale è appropriato per rappresentare strutture ad albero come quella che stiamo implementando.&lt;/span&gt;&lt;/p&gt;" style="text;html=1;whiteSpace=wrap;overflow=hidden;rounded=0;" parent="1" vertex="1">
          <mxGeometry x="80" y="80" width="680" height="120" as="geometry" />
        </mxCell>
        <mxCell id="dZrg1Dmyb5-e563Cat1v-1" value="" style="endArrow=block;endSize=10;endFill=0;shadow=0;strokeWidth=1;rounded=0;curved=0;edgeStyle=elbowEdgeStyle;elbow=vertical;dashed=1;entryX=0.5;entryY=1;entryDx=0;entryDy=0;exitX=0.5;exitY=0;exitDx=0;exitDy=0;" parent="1" source="dZrg1Dmyb5-e563Cat1v-4" target="dZrg1Dmyb5-e563Cat1v-3" edge="1">
          <mxGeometry width="160" relative="1" as="geometry">
            <mxPoint x="300" y="488" as="sourcePoint" />
            <mxPoint x="395" y="396" as="targetPoint" />
          </mxGeometry>
        </mxCell>
        <mxCell id="dZrg1Dmyb5-e563Cat1v-2" value="" style="endArrow=block;endSize=10;endFill=0;shadow=0;strokeWidth=1;rounded=0;curved=0;edgeStyle=elbowEdgeStyle;elbow=vertical;dashed=1;exitX=0.5;exitY=0;exitDx=0;exitDy=0;" parent="1" source="dZrg1Dmyb5-e563Cat1v-5" target="dZrg1Dmyb5-e563Cat1v-3" edge="1">
          <mxGeometry width="160" relative="1" as="geometry">
            <mxPoint x="519" y="489" as="sourcePoint" />
            <mxPoint x="404" y="397" as="targetPoint" />
          </mxGeometry>
        </mxCell>
        <mxCell id="dZrg1Dmyb5-e563Cat1v-3" value="&lt;p style=&quot;margin:0px;margin-top:4px;text-align:center;&quot;&gt;&lt;i&gt;&amp;lt;&amp;lt;Interface&amp;gt;&amp;gt;&lt;/i&gt;&lt;br&gt;&lt;b&gt;UnitaIF&lt;/b&gt;&lt;/p&gt;&lt;hr size=&quot;1&quot; style=&quot;border-style:solid;&quot;&gt;&lt;p style=&quot;margin:0px;margin-left:4px;&quot;&gt;&lt;/p&gt;&lt;p style=&quot;margin:0px;margin-left:4px;&quot;&gt;...&lt;/p&gt;&lt;p style=&quot;margin:0px;margin-left:4px;&quot;&gt;&lt;br&gt;&lt;/p&gt;&lt;p style=&quot;margin:0px;margin-left:4px;&quot;&gt;+ accept(v:Visitor):String&lt;/p&gt;" style="verticalAlign=top;align=left;overflow=fill;html=1;whiteSpace=wrap;" parent="1" vertex="1">
          <mxGeometry x="310" y="260" width="190" height="100" as="geometry" />
        </mxCell>
        <mxCell id="dZrg1Dmyb5-e563Cat1v-4" value="&lt;p style=&quot;margin:0px;margin-top:4px;text-align:center;&quot;&gt;&lt;b&gt;UnitaIF&lt;/b&gt;&lt;/p&gt;&lt;hr size=&quot;1&quot; style=&quot;border-style:solid;&quot;&gt;&lt;p style=&quot;margin:0px;margin-left:4px;&quot;&gt;&lt;/p&gt;&lt;p style=&quot;margin:0px;margin-left:4px;&quot;&gt;...&lt;/p&gt;&lt;p style=&quot;margin:0px;margin-left:4px;&quot;&gt;&lt;br&gt;&lt;/p&gt;&lt;p style=&quot;margin:0px;margin-left:4px;&quot;&gt;+&amp;nbsp;&lt;span style=&quot;background-color: initial;&quot;&gt;accept(v:Visitor):String&lt;/span&gt;&lt;br&gt;&lt;/p&gt;" style="verticalAlign=top;align=left;overflow=fill;html=1;whiteSpace=wrap;" parent="1" vertex="1">
          <mxGeometry x="224" y="460" width="161" height="89" as="geometry" />
        </mxCell>
        <mxCell id="dZrg1Dmyb5-e563Cat1v-5" value="&lt;p style=&quot;margin:0px;margin-top:4px;text-align:center;&quot;&gt;&lt;b&gt;OrganoGestione&lt;/b&gt;&lt;/p&gt;&lt;hr size=&quot;1&quot; style=&quot;border-style:solid;&quot;&gt;&lt;p style=&quot;margin:0px;margin-left:4px;&quot;&gt;&lt;/p&gt;&lt;p style=&quot;margin:0px;margin-left:4px;&quot;&gt;...&lt;/p&gt;&lt;p style=&quot;margin:0px;margin-left:4px;&quot;&gt;&lt;br&gt;&lt;/p&gt;&lt;p style=&quot;margin:0px;margin-left:4px;&quot;&gt;+&amp;nbsp;&lt;span style=&quot;background-color: initial;&quot;&gt;accept(v:Visitor):String&lt;/span&gt;&lt;/p&gt;" style="verticalAlign=top;align=left;overflow=fill;html=1;whiteSpace=wrap;" parent="1" vertex="1">
          <mxGeometry x="425" y="460" width="161" height="89" as="geometry" />
        </mxCell>
        <mxCell id="dZrg1Dmyb5-e563Cat1v-6" value="" style="endArrow=open;html=1;rounded=0;exitX=0.896;exitY=0.001;exitDx=0;exitDy=0;entryX=0.999;entryY=0.646;entryDx=0;entryDy=0;endFill=0;startArrow=diamond;startFill=0;startSize=12;exitPerimeter=0;entryPerimeter=0;" parent="1" source="dZrg1Dmyb5-e563Cat1v-5" target="dZrg1Dmyb5-e563Cat1v-3" edge="1">
          <mxGeometry width="50" height="50" relative="1" as="geometry">
            <mxPoint x="569" y="460" as="sourcePoint" />
            <mxPoint x="500" y="325" as="targetPoint" />
            <Array as="points">
              <mxPoint x="570" y="325" />
            </Array>
          </mxGeometry>
        </mxCell>
        <mxCell id="dZrg1Dmyb5-e563Cat1v-7" value="children" style="edgeLabel;html=1;align=center;verticalAlign=middle;resizable=0;points=[];" parent="dZrg1Dmyb5-e563Cat1v-6" vertex="1" connectable="0">
          <mxGeometry x="-0.7207" y="-1" relative="1" as="geometry">
            <mxPoint x="23" y="-11" as="offset" />
          </mxGeometry>
        </mxCell>
        <mxCell id="dZrg1Dmyb5-e563Cat1v-8" value="&lt;p style=&quot;margin:0px;margin-top:4px;text-align:center;&quot;&gt;&lt;i&gt;&amp;lt;&amp;lt;Interface&amp;gt;&amp;gt;&lt;/i&gt;&lt;br&gt;&lt;b&gt;Visitor&lt;/b&gt;&lt;/p&gt;&lt;hr size=&quot;1&quot; style=&quot;border-style:solid;&quot;&gt;&lt;p style=&quot;margin:0px;margin-left:4px;&quot;&gt;&lt;/p&gt;&lt;p style=&quot;margin:0px;margin-left:4px;&quot;&gt;...&lt;/p&gt;&lt;p style=&quot;margin:0px;margin-left:4px;&quot;&gt;&lt;br&gt;&lt;/p&gt;&lt;p style=&quot;margin:0px;margin-left:4px;&quot;&gt;+ visitUnita(u:Unita):String&lt;/p&gt;&lt;p style=&quot;margin:0px;margin-left:4px;&quot;&gt;+ visitOrganoGestione(og:OrganoGestione):String&lt;/p&gt;" style="verticalAlign=top;align=left;overflow=fill;html=1;whiteSpace=wrap;" parent="1" vertex="1">
          <mxGeometry x="273" y="730" width="290" height="111" as="geometry" />
        </mxCell>
        <mxCell id="dZrg1Dmyb5-e563Cat1v-11" style="edgeStyle=orthogonalEdgeStyle;rounded=0;orthogonalLoop=1;jettySize=auto;html=1;entryX=0.338;entryY=1.001;entryDx=0;entryDy=0;endArrow=block;endFill=0;dashed=1;endSize=10;entryPerimeter=0;" parent="1" source="dZrg1Dmyb5-e563Cat1v-10" target="dZrg1Dmyb5-e563Cat1v-8" edge="1">
          <mxGeometry relative="1" as="geometry" />
        </mxCell>
        <mxCell id="C-1bR5bDCRDqwKdKpEbA-3" value="&amp;lt;&amp;lt;bind&amp;gt;&amp;gt;" style="edgeLabel;html=1;align=center;verticalAlign=middle;resizable=0;points=[];" parent="dZrg1Dmyb5-e563Cat1v-11" vertex="1" connectable="0">
          <mxGeometry x="-0.1626" relative="1" as="geometry">
            <mxPoint y="-11" as="offset" />
          </mxGeometry>
        </mxCell>
        <mxCell id="C-1bR5bDCRDqwKdKpEbA-7" value="T::String" style="edgeLabel;html=1;align=center;verticalAlign=middle;resizable=0;points=[];" parent="dZrg1Dmyb5-e563Cat1v-11" vertex="1" connectable="0">
          <mxGeometry x="-0.0758" y="-1" relative="1" as="geometry">
            <mxPoint x="-9" y="8" as="offset" />
          </mxGeometry>
        </mxCell>
        <mxCell id="dZrg1Dmyb5-e563Cat1v-10" value="&lt;p style=&quot;margin:0px;margin-top:4px;text-align:center;&quot;&gt;&lt;b&gt;VisitorXML&lt;/b&gt;&lt;/p&gt;&lt;hr size=&quot;1&quot; style=&quot;border-style:solid;&quot;&gt;&lt;p style=&quot;margin:0px;margin-left:4px;&quot;&gt;&lt;/p&gt;&lt;p style=&quot;margin:0px;margin-left:4px;&quot;&gt;...&lt;/p&gt;&lt;p style=&quot;margin:0px;margin-left:4px;&quot;&gt;&lt;br&gt;&lt;/p&gt;&lt;p style=&quot;margin:0px;margin-left:4px;&quot;&gt;+ visitUnita(u:Unita):String&lt;/p&gt;&lt;p style=&quot;margin:0px;margin-left:4px;&quot;&gt;+ visitOrganoGestione(og:OrganoGestione):String&lt;/p&gt;" style="verticalAlign=top;align=left;overflow=fill;html=1;whiteSpace=wrap;" parent="1" vertex="1">
          <mxGeometry x="105" y="940" width="290" height="101" as="geometry" />
        </mxCell>
        <mxCell id="Onb2TQAHdOGb9VgeIxxn-3" style="edgeStyle=orthogonalEdgeStyle;rounded=0;orthogonalLoop=1;jettySize=auto;html=1;exitX=0.813;exitY=0.015;exitDx=0;exitDy=0;exitPerimeter=0;dashed=1;endArrow=none;endFill=0;entryX=0.907;entryY=0.787;entryDx=0;entryDy=0;entryPerimeter=0;" parent="1" source="Onb2TQAHdOGb9VgeIxxn-1" target="dZrg1Dmyb5-e563Cat1v-4" edge="1">
          <mxGeometry relative="1" as="geometry">
            <mxPoint x="360.077" y="586.2400000000001" as="sourcePoint" />
            <mxPoint x="359.999" y="531.022" as="targetPoint" />
          </mxGeometry>
        </mxCell>
        <mxCell id="Onb2TQAHdOGb9VgeIxxn-1" value="v.visitUnita(this)" style="shape=note2;boundedLbl=1;whiteSpace=wrap;html=1;size=17;verticalAlign=middle;align=left;fontSize=12;spacing=8;" parent="1" vertex="1">
          <mxGeometry x="270" y="589" width="123" height="40" as="geometry" />
        </mxCell>
        <mxCell id="Onb2TQAHdOGb9VgeIxxn-2" value="v.visitOrganoGestione(this)" style="shape=note2;boundedLbl=1;whiteSpace=wrap;html=1;size=17;verticalAlign=middle;align=left;fontSize=12;spacing=8;" parent="1" vertex="1">
          <mxGeometry x="425" y="589" width="179" height="40" as="geometry" />
        </mxCell>
        <mxCell id="Onb2TQAHdOGb9VgeIxxn-4" style="edgeStyle=orthogonalEdgeStyle;rounded=0;orthogonalLoop=1;jettySize=auto;html=1;dashed=1;endArrow=none;endFill=0;exitX=0.842;exitY=0.006;exitDx=0;exitDy=0;exitPerimeter=0;entryX=0.936;entryY=0.787;entryDx=0;entryDy=0;entryPerimeter=0;" parent="1" source="Onb2TQAHdOGb9VgeIxxn-2" target="dZrg1Dmyb5-e563Cat1v-5" edge="1">
          <mxGeometry relative="1" as="geometry">
            <mxPoint x="543" y="589" as="sourcePoint" />
            <mxPoint x="556" y="531" as="targetPoint" />
          </mxGeometry>
        </mxCell>
        <mxCell id="C-1bR5bDCRDqwKdKpEbA-1" value="&lt;p style=&quot;margin:0px;margin-top:4px;text-align:center;&quot;&gt;&lt;b&gt;VisitorListDipendenti&lt;/b&gt;&lt;/p&gt;&lt;hr size=&quot;1&quot; style=&quot;border-style:solid;&quot;&gt;&lt;p style=&quot;margin:0px;margin-left:4px;&quot;&gt;&lt;/p&gt;&lt;p style=&quot;margin:0px;margin-left:4px;&quot;&gt;...&lt;/p&gt;&lt;p style=&quot;margin:0px;margin-left:4px;&quot;&gt;&lt;br&gt;&lt;/p&gt;&lt;p style=&quot;margin:0px;margin-left:4px;&quot;&gt;+ visitUnita(u:Unita):String&lt;/p&gt;&lt;p style=&quot;margin:0px;margin-left:4px;&quot;&gt;+ visitOrganoGestione(og:OrganoGestione):String&lt;/p&gt;" style="verticalAlign=top;align=left;overflow=fill;html=1;whiteSpace=wrap;" parent="1" vertex="1">
          <mxGeometry x="433" y="940" width="290" height="101" as="geometry" />
        </mxCell>
        <mxCell id="C-1bR5bDCRDqwKdKpEbA-2" style="edgeStyle=orthogonalEdgeStyle;rounded=0;orthogonalLoop=1;jettySize=auto;html=1;entryX=0.5;entryY=1;entryDx=0;entryDy=0;endArrow=block;endFill=0;dashed=1;endSize=10;exitX=0.5;exitY=0;exitDx=0;exitDy=0;" parent="1" source="C-1bR5bDCRDqwKdKpEbA-1" target="dZrg1Dmyb5-e563Cat1v-8" edge="1">
          <mxGeometry relative="1" as="geometry">
            <mxPoint x="260" y="950" as="sourcePoint" />
            <mxPoint x="260" y="861" as="targetPoint" />
          </mxGeometry>
        </mxCell>
        <mxCell id="C-1bR5bDCRDqwKdKpEbA-5" value="&amp;lt;&amp;lt;bind&amp;gt;&amp;gt;" style="edgeLabel;html=1;align=center;verticalAlign=middle;resizable=0;points=[];" parent="C-1bR5bDCRDqwKdKpEbA-2" vertex="1" connectable="0">
          <mxGeometry x="0.027" y="2" relative="1" as="geometry">
            <mxPoint y="-13" as="offset" />
          </mxGeometry>
        </mxCell>
        <mxCell id="C-1bR5bDCRDqwKdKpEbA-8" value="T::List&amp;lt;Dipendente&amp;gt;" style="edgeLabel;html=1;align=center;verticalAlign=middle;resizable=0;points=[];" parent="C-1bR5bDCRDqwKdKpEbA-2" vertex="1" connectable="0">
          <mxGeometry x="-0.1092" y="1" relative="1" as="geometry">
            <mxPoint x="-19" y="8" as="offset" />
          </mxGeometry>
        </mxCell>
      </root>
    </mxGraphModel>
  </diagram>
  <diagram id="5wJ3zQHZVkr0V4YRmYB0" name="Parte 5 - Integrazione Dipendenti">
    <mxGraphModel dx="1050" dy="621" grid="1" gridSize="10" guides="1" tooltips="1" connect="1" arrows="1" fold="1" page="1" pageScale="1" pageWidth="827" pageHeight="1169" math="0" shadow="0">
      <root>
        <mxCell id="0" />
        <mxCell id="1" parent="0" />
        <mxCell id="p14luHO8KejNHW9x_paJ-1" value="&lt;h1 style=&quot;margin-top: 0px;&quot;&gt;Fase 5: Integrazione dei dipendenti nella struttura&lt;/h1&gt;&lt;p&gt;Una funzionalità richiesta dalla traccia è quella di poter aggiungere dipendenti ad un&#39;unità/organi di gestione. Creo quindi una classe Dipendente e una struttura per associare i dipendenti ai rispettivi ruoli.&lt;/p&gt;" style="text;html=1;whiteSpace=wrap;overflow=hidden;rounded=0;" parent="1" vertex="1">
          <mxGeometry x="80" y="80" width="680" height="120" as="geometry" />
        </mxCell>
        <mxCell id="0klGvaHsby6QCXdUZ3pV-1" value="" style="endArrow=block;endSize=10;endFill=0;shadow=0;strokeWidth=1;rounded=0;curved=0;edgeStyle=elbowEdgeStyle;elbow=vertical;dashed=1;entryX=0.5;entryY=1;entryDx=0;entryDy=0;exitX=0.5;exitY=0;exitDx=0;exitDy=0;" parent="1" source="0klGvaHsby6QCXdUZ3pV-4" target="0klGvaHsby6QCXdUZ3pV-3" edge="1">
          <mxGeometry width="160" relative="1" as="geometry">
            <mxPoint x="184" y="663" as="sourcePoint" />
            <mxPoint x="279" y="571" as="targetPoint" />
          </mxGeometry>
        </mxCell>
        <mxCell id="0klGvaHsby6QCXdUZ3pV-2" value="" style="endArrow=block;endSize=10;endFill=0;shadow=0;strokeWidth=1;rounded=0;curved=0;edgeStyle=elbowEdgeStyle;elbow=vertical;dashed=1;exitX=0.536;exitY=0.012;exitDx=0;exitDy=0;exitPerimeter=0;" parent="1" source="pMJ5YpjYv8QFMYLnoMeH-1" target="0klGvaHsby6QCXdUZ3pV-3" edge="1">
          <mxGeometry width="160" relative="1" as="geometry">
            <mxPoint x="554.5" y="635" as="sourcePoint" />
            <mxPoint x="288" y="572" as="targetPoint" />
          </mxGeometry>
        </mxCell>
        <mxCell id="0klGvaHsby6QCXdUZ3pV-3" value="&lt;p style=&quot;margin:0px;margin-top:4px;text-align:center;&quot;&gt;&lt;i&gt;&amp;lt;&amp;lt;Interface&amp;gt;&amp;gt;&lt;/i&gt;&lt;br&gt;&lt;b&gt;UnitaIF&lt;/b&gt;&lt;/p&gt;&lt;hr size=&quot;1&quot; style=&quot;border-style:solid;&quot;&gt;&lt;p style=&quot;margin:0px;margin-left:4px;&quot;&gt;&lt;/p&gt;&lt;p style=&quot;margin:0px;margin-left:4px;&quot;&gt;...&lt;/p&gt;&lt;p style=&quot;margin:0px;margin-left:4px;&quot;&gt;&lt;br&gt;&lt;/p&gt;&lt;p style=&quot;margin:0px;margin-left:4px;&quot;&gt;+ addDipendente(d:Dipendente, ruolo:String)&lt;/p&gt;&lt;p style=&quot;margin:0px;margin-left:4px;&quot;&gt;+ removeDipendente(d:Dipendente)&lt;/p&gt;&lt;p style=&quot;margin:0px;margin-left:4px;&quot;&gt;+ getDipendenti():Set&amp;lt;Dipendente&amp;gt;&lt;/p&gt;" style="verticalAlign=top;align=left;overflow=fill;html=1;whiteSpace=wrap;" parent="1" vertex="1">
          <mxGeometry x="294" y="405" width="280" height="130" as="geometry" />
        </mxCell>
        <mxCell id="0klGvaHsby6QCXdUZ3pV-4" value="&lt;p style=&quot;margin:0px;margin-top:4px;text-align:center;&quot;&gt;&lt;b&gt;Unita&lt;/b&gt;&lt;/p&gt;&lt;hr size=&quot;1&quot; style=&quot;border-style:solid;&quot;&gt;&lt;p style=&quot;margin:0px;margin-left:4px;&quot;&gt;&lt;/p&gt;&lt;p style=&quot;margin:0px;margin-left:4px;&quot;&gt;- dipendenti:Map&amp;lt;Dipendente, String&amp;gt;&lt;span style=&quot;color: rgba(0, 0, 0, 0); font-family: monospace; font-size: 0px; text-wrap: nowrap; background-color: initial;&quot;&gt;%3CmxGraphModel%3E%3Croot%3E%3CmxCell%20id%3D%220%22%2F%3E%3CmxCell%20id%3D%221%22%20parent%3D%220%22%2F%3E%3CmxCell%20id%3D%222%22%20value%3D%22%22%20style%3D%22endArrow%3Dblock%3BendSize%3D10%3BendFill%3D0%3Bshadow%3D0%3BstrokeWidth%3D1%3Brounded%3D0%3Bcurved%3D0%3BedgeStyle%3DelbowEdgeStyle%3Belbow%3Dvertical%3Bdashed%3D1%3BentryX%3D0.5%3BentryY%3D1%3BentryDx%3D0%3BentryDy%3D0%3BexitX%3D0.5%3BexitY%3D0%3BexitDx%3D0%3BexitDy%3D0%3B%22%20edge%3D%221%22%20source%3D%225%22%20target%3D%224%22%20parent%3D%221%22%3E%3CmxGeometry%20width%3D%22160%22%20relative%3D%221%22%20as%3D%22geometry%22%3E%3CmxPoint%20x%3D%22110%22%20y%3D%22628%22%20as%3D%22sourcePoint%22%2F%3E%3CmxPoint%20x%3D%22205%22%20y%3D%22536%22%20as%3D%22targetPoint%22%2F%3E%3C%2FmxGeometry%3E%3C%2FmxCell%3E%3CmxCell%20id%3D%223%22%20value%3D%22%22%20style%3D%22endArrow%3Dblock%3BendSize%3D10%3BendFill%3D0%3Bshadow%3D0%3BstrokeWidth%3D1%3Brounded%3D0%3Bcurved%3D0%3BedgeStyle%3DelbowEdgeStyle%3Belbow%3Dvertical%3Bdashed%3D1%3BexitX%3D0.5%3BexitY%3D0%3BexitDx%3D0%3BexitDy%3D0%3B%22%20edge%3D%221%22%20source%3D%226%22%20target%3D%224%22%20parent%3D%221%22%3E%3CmxGeometry%20width%3D%22160%22%20relative%3D%221%22%20as%3D%22geometry%22%3E%3CmxPoint%20x%3D%22329%22%20y%3D%22629%22%20as%3D%22sourcePoint%22%2F%3E%3CmxPoint%20x%3D%22214%22%20y%3D%22537%22%20as%3D%22targetPoint%22%2F%3E%3C%2FmxGeometry%3E%3C%2FmxCell%3E%3CmxCell%20id%3D%224%22%20value%3D%22%26lt%3Bp%20style%3D%26quot%3Bmargin%3A0px%3Bmargin-top%3A4px%3Btext-align%3Acenter%3B%26quot%3B%26gt%3B%26lt%3Bi%26gt%3B%26amp%3Blt%3B%26amp%3Blt%3BInterface%26amp%3Bgt%3B%26amp%3Bgt%3B%26lt%3B%2Fi%26gt%3B%26lt%3Bbr%26gt%3B%26lt%3Bb%26gt%3BUnitaIF%26lt%3B%2Fb%26gt%3B%26lt%3B%2Fp%26gt%3B%26lt%3Bhr%20size%3D%26quot%3B1%26quot%3B%20style%3D%26quot%3Bborder-style%3Asolid%3B%26quot%3B%26gt%3B%26lt%3Bp%20style%3D%26quot%3Bmargin%3A0px%3Bmargin-left%3A4px%3B%26quot%3B%26gt%3B%26lt%3B%2Fp%26gt%3B%26lt%3Bp%20style%3D%26quot%3Bmargin%3A0px%3Bmargin-left%3A4px%3B%26quot%3B%26gt%3B...%26lt%3B%2Fp%26gt%3B%26lt%3Bp%20style%3D%26quot%3Bmargin%3A0px%3Bmargin-left%3A4px%3B%26quot%3B%26gt%3B%26lt%3Bbr%26gt%3B%26lt%3B%2Fp%26gt%3B%26lt%3Bp%20style%3D%26quot%3Bmargin%3A0px%3Bmargin-left%3A4px%3B%26quot%3B%26gt%3B%2B%20accept(v%3AVisitor)%3AString%26lt%3B%2Fp%26gt%3B%22%20style%3D%22verticalAlign%3Dtop%3Balign%3Dleft%3Boverflow%3Dfill%3Bhtml%3D1%3BwhiteSpace%3Dwrap%3B%22%20vertex%3D%221%22%20parent%3D%221%22%3E%3CmxGeometry%20x%3D%22120%22%20y%3D%22400%22%20width%3D%22190%22%20height%3D%22100%22%20as%3D%22geometry%22%2F%3E%3C%2FmxCell%3E%3CmxCell%20id%3D%225%22%20value%3D%22%26lt%3Bp%20style%3D%26quot%3Bmargin%3A0px%3Bmargin-top%3A4px%3Btext-align%3Acenter%3B%26quot%3B%26gt%3B%26lt%3Bb%26gt%3BUnitaIF%26lt%3B%2Fb%26gt%3B%26lt%3B%2Fp%26gt%3B%26lt%3Bhr%20size%3D%26quot%3B1%26quot%3B%20style%3D%26quot%3Bborder-style%3Asolid%3B%26quot%3B%26gt%3B%26lt%3Bp%20style%3D%26quot%3Bmargin%3A0px%3Bmargin-left%3A4px%3B%26quot%3B%26gt%3B%26lt%3B%2Fp%26gt%3B%26lt%3Bp%20style%3D%26quot%3Bmargin%3A0px%3Bmargin-left%3A4px%3B%26quot%3B%26gt%3B...%26lt%3B%2Fp%26gt%3B%26lt%3Bp%20style%3D%26quot%3Bmargin%3A0px%3Bmargin-left%3A4px%3B%26quot%3B%26gt%3B%26lt%3Bbr%26gt%3B%26lt%3B%2Fp%26gt%3B%26lt%3Bp%20style%3D%26quot%3Bmargin%3A0px%3Bmargin-left%3A4px%3B%26quot%3B%26gt%3B%2B%26amp%3Bnbsp%3B%26lt%3Bspan%20style%3D%26quot%3Bbackground-color%3A%20initial%3B%26quot%3B%26gt%3Baccept(v%3AVisitor)%3AString%26lt%3B%2Fspan%26gt%3B%26lt%3Bbr%26gt%3B%26lt%3B%2Fp%26gt%3B%22%20style%3D%22verticalAlign%3Dtop%3Balign%3Dleft%3Boverflow%3Dfill%3Bhtml%3D1%3BwhiteSpace%3Dwrap%3B%22%20vertex%3D%221%22%20parent%3D%221%22%3E%3CmxGeometry%20x%3D%2234%22%20y%3D%22600%22%20width%3D%22161%22%20height%3D%2289%22%20as%3D%22geometry%22%2F%3E%3C%2FmxCell%3E%3CmxCell%20id%3D%226%22%20value%3D%22%26lt%3Bp%20style%3D%26quot%3Bmargin%3A0px%3Bmargin-top%3A4px%3Btext-align%3Acenter%3B%26quot%3B%26gt%3B%26lt%3Bb%26gt%3BOrganoGestione%26lt%3B%2Fb%26gt%3B%26lt%3B%2Fp%26gt%3B%26lt%3Bhr%20size%3D%26quot%3B1%26quot%3B%20style%3D%26quot%3Bborder-style%3Asolid%3B%26quot%3B%26gt%3B%26lt%3Bp%20style%3D%26quot%3Bmargin%3A0px%3Bmargin-left%3A4px%3B%26quot%3B%26gt%3B%26lt%3B%2Fp%26gt%3B%26lt%3Bp%20style%3D%26quot%3Bmargin%3A0px%3Bmargin-left%3A4px%3B%26quot%3B%26gt%3B...%26lt%3B%2Fp%26gt%3B%26lt%3Bp%20style%3D%26quot%3Bmargin%3A0px%3Bmargin-left%3A4px%3B%26quot%3B%26gt%3B%26lt%3Bbr%26gt%3B%26lt%3B%2Fp%26gt%3B%26lt%3Bp%20style%3D%26quot%3Bmargin%3A0px%3Bmargin-left%3A4px%3B%26quot%3B%26gt%3B%2B%26amp%3Bnbsp%3B%26lt%3Bspan%20style%3D%26quot%3Bbackground-color%3A%20initial%3B%26quot%3B%26gt%3Baccept(v%3AVisitor)%3AString%26lt%3B%2Fspan%26gt%3B%26lt%3B%2Fp%26gt%3B%22%20style%3D%22verticalAlign%3Dtop%3Balign%3Dleft%3Boverflow%3Dfill%3Bhtml%3D1%3BwhiteSpace%3Dwrap%3B%22%20vertex%3D%221%22%20parent%3D%221%22%3E%3CmxGeometry%20x%3D%22235%22%20y%3D%22600%22%20width%3D%22161%22%20height%3D%2289%22%20as%3D%22geometry%22%2F%3E%3C%2FmxCell%3E%3CmxCell%20id%3D%227%22%20value%3D%22%22%20style%3D%22endArrow%3Dopen%3Bhtml%3D1%3Brounded%3D0%3BexitX%3D0.896%3BexitY%3D0.001%3BexitDx%3D0%3BexitDy%3D0%3BentryX%3D0.999%3BentryY%3D0.646%3BentryDx%3D0%3BentryDy%3D0%3BendFill%3D0%3BstartArrow%3Ddiamond%3BstartFill%3D0%3BstartSize%3D12%3BexitPerimeter%3D0%3BentryPerimeter%3D0%3B%22%20edge%3D%221%22%20source%3D%226%22%20target%3D%224%22%20parent%3D%221%22%3E%3CmxGeometry%20width%3D%2250%22%20height%3D%2250%22%20relative%3D%221%22%20as%3D%22geometry%22%3E%3CmxPoint%20x%3D%22379%22%20y%3D%22600%22%20as%3D%22sourcePoint%22%2F%3E%3CmxPoint%20x%3D%22310%22%20y%3D%22465%22%20as%3D%22targetPoint%22%2F%3E%3CArray%20as%3D%22points%22%3E%3CmxPoint%20x%3D%22380%22%20y%3D%22465%22%2F%3E%3C%2FArray%3E%3C%2FmxGeometry%3E%3C%2FmxCell%3E%3CmxCell%20id%3D%228%22%20value%3D%22children%22%20style%3D%22edgeLabel%3Bhtml%3D1%3Balign%3Dcenter%3BverticalAlign%3Dmiddle%3Bresizable%3D0%3Bpoints%3D%5B%5D%3B%22%20vertex%3D%221%22%20connectable%3D%220%22%20parent%3D%227%22%3E%3CmxGeometry%20x%3D%22-0.7207%22%20y%3D%22-1%22%20relative%3D%221%22%20as%3D%22geometry%22%3E%3CmxPoint%20x%3D%2223%22%20y%3D%22-11%22%20as%3D%22offset%22%2F%3E%3C%2FmxGeometry%3E%3C%2FmxCell%3E%3C%2Froot%3E%3C%2FmxGraphModel%3E&lt;/span&gt;&lt;/p&gt;&lt;hr&gt;&lt;p style=&quot;margin:0px;margin-left:4px;&quot;&gt;...&lt;/p&gt;&lt;p style=&quot;color: rgb(0, 0, 0); margin: 0px 0px 0px 4px;&quot;&gt;+ addDipendente(d:Dipendente, ruolo:String)&lt;/p&gt;&lt;p style=&quot;color: rgb(0, 0, 0); margin: 0px 0px 0px 4px;&quot;&gt;+ removeDipendente(d:Dipendente)&lt;/p&gt;&lt;p style=&quot;color: rgb(0, 0, 0); margin: 0px 0px 0px 4px;&quot;&gt;+ getDipendenti():Set&amp;lt;Dipendente&amp;gt;&lt;/p&gt;" style="verticalAlign=top;align=left;overflow=fill;html=1;whiteSpace=wrap;" parent="1" vertex="1">
          <mxGeometry x="154" y="635" width="280" height="130" as="geometry" />
        </mxCell>
        <mxCell id="0klGvaHsby6QCXdUZ3pV-6" value="" style="endArrow=open;html=1;rounded=0;exitX=0.75;exitY=0;exitDx=0;exitDy=0;entryX=0.999;entryY=0.646;entryDx=0;entryDy=0;endFill=0;startArrow=diamond;startFill=0;startSize=12;entryPerimeter=0;" parent="1" source="pMJ5YpjYv8QFMYLnoMeH-1" target="0klGvaHsby6QCXdUZ3pV-3" edge="1">
          <mxGeometry width="50" height="50" relative="1" as="geometry">
            <mxPoint x="618.2560000000001" y="635.0889999999999" as="sourcePoint" />
            <mxPoint x="384" y="500" as="targetPoint" />
            <Array as="points">
              <mxPoint x="684" y="489" />
            </Array>
          </mxGeometry>
        </mxCell>
        <mxCell id="0klGvaHsby6QCXdUZ3pV-7" value="children" style="edgeLabel;html=1;align=center;verticalAlign=middle;resizable=0;points=[];" parent="0klGvaHsby6QCXdUZ3pV-6" vertex="1" connectable="0">
          <mxGeometry x="-0.7207" y="-1" relative="1" as="geometry">
            <mxPoint x="23" y="-11" as="offset" />
          </mxGeometry>
        </mxCell>
        <mxCell id="pMJ5YpjYv8QFMYLnoMeH-1" value="&lt;p style=&quot;margin:0px;margin-top:4px;text-align:center;&quot;&gt;&lt;b&gt;OrganoGestione&lt;/b&gt;&lt;/p&gt;&lt;hr size=&quot;1&quot; style=&quot;border-style:solid;&quot;&gt;&lt;p style=&quot;margin:0px;margin-left:4px;&quot;&gt;&lt;/p&gt;&lt;p style=&quot;margin:0px;margin-left:4px;&quot;&gt;- dipendenti:Map&amp;lt;Dipendente, String&amp;gt;&lt;span style=&quot;color: rgba(0, 0, 0, 0); font-family: monospace; font-size: 0px; text-wrap: nowrap; background-color: initial;&quot;&gt;%3CmxGraphModel%3E%3Croot%3E%3CmxCell%20id%3D%220%22%2F%3E%3CmxCell%20id%3D%221%22%20parent%3D%220%22%2F%3E%3CmxCell%20id%3D%222%22%20value%3D%22%22%20style%3D%22endArrow%3Dblock%3BendSize%3D10%3BendFill%3D0%3Bshadow%3D0%3BstrokeWidth%3D1%3Brounded%3D0%3Bcurved%3D0%3BedgeStyle%3DelbowEdgeStyle%3Belbow%3Dvertical%3Bdashed%3D1%3BentryX%3D0.5%3BentryY%3D1%3BentryDx%3D0%3BentryDy%3D0%3BexitX%3D0.5%3BexitY%3D0%3BexitDx%3D0%3BexitDy%3D0%3B%22%20edge%3D%221%22%20source%3D%225%22%20target%3D%224%22%20parent%3D%221%22%3E%3CmxGeometry%20width%3D%22160%22%20relative%3D%221%22%20as%3D%22geometry%22%3E%3CmxPoint%20x%3D%22110%22%20y%3D%22628%22%20as%3D%22sourcePoint%22%2F%3E%3CmxPoint%20x%3D%22205%22%20y%3D%22536%22%20as%3D%22targetPoint%22%2F%3E%3C%2FmxGeometry%3E%3C%2FmxCell%3E%3CmxCell%20id%3D%223%22%20value%3D%22%22%20style%3D%22endArrow%3Dblock%3BendSize%3D10%3BendFill%3D0%3Bshadow%3D0%3BstrokeWidth%3D1%3Brounded%3D0%3Bcurved%3D0%3BedgeStyle%3DelbowEdgeStyle%3Belbow%3Dvertical%3Bdashed%3D1%3BexitX%3D0.5%3BexitY%3D0%3BexitDx%3D0%3BexitDy%3D0%3B%22%20edge%3D%221%22%20source%3D%226%22%20target%3D%224%22%20parent%3D%221%22%3E%3CmxGeometry%20width%3D%22160%22%20relative%3D%221%22%20as%3D%22geometry%22%3E%3CmxPoint%20x%3D%22329%22%20y%3D%22629%22%20as%3D%22sourcePoint%22%2F%3E%3CmxPoint%20x%3D%22214%22%20y%3D%22537%22%20as%3D%22targetPoint%22%2F%3E%3C%2FmxGeometry%3E%3C%2FmxCell%3E%3CmxCell%20id%3D%224%22%20value%3D%22%26lt%3Bp%20style%3D%26quot%3Bmargin%3A0px%3Bmargin-top%3A4px%3Btext-align%3Acenter%3B%26quot%3B%26gt%3B%26lt%3Bi%26gt%3B%26amp%3Blt%3B%26amp%3Blt%3BInterface%26amp%3Bgt%3B%26amp%3Bgt%3B%26lt%3B%2Fi%26gt%3B%26lt%3Bbr%26gt%3B%26lt%3Bb%26gt%3BUnitaIF%26lt%3B%2Fb%26gt%3B%26lt%3B%2Fp%26gt%3B%26lt%3Bhr%20size%3D%26quot%3B1%26quot%3B%20style%3D%26quot%3Bborder-style%3Asolid%3B%26quot%3B%26gt%3B%26lt%3Bp%20style%3D%26quot%3Bmargin%3A0px%3Bmargin-left%3A4px%3B%26quot%3B%26gt%3B%26lt%3B%2Fp%26gt%3B%26lt%3Bp%20style%3D%26quot%3Bmargin%3A0px%3Bmargin-left%3A4px%3B%26quot%3B%26gt%3B...%26lt%3B%2Fp%26gt%3B%26lt%3Bp%20style%3D%26quot%3Bmargin%3A0px%3Bmargin-left%3A4px%3B%26quot%3B%26gt%3B%26lt%3Bbr%26gt%3B%26lt%3B%2Fp%26gt%3B%26lt%3Bp%20style%3D%26quot%3Bmargin%3A0px%3Bmargin-left%3A4px%3B%26quot%3B%26gt%3B%2B%20accept(v%3AVisitor)%3AString%26lt%3B%2Fp%26gt%3B%22%20style%3D%22verticalAlign%3Dtop%3Balign%3Dleft%3Boverflow%3Dfill%3Bhtml%3D1%3BwhiteSpace%3Dwrap%3B%22%20vertex%3D%221%22%20parent%3D%221%22%3E%3CmxGeometry%20x%3D%22120%22%20y%3D%22400%22%20width%3D%22190%22%20height%3D%22100%22%20as%3D%22geometry%22%2F%3E%3C%2FmxCell%3E%3CmxCell%20id%3D%225%22%20value%3D%22%26lt%3Bp%20style%3D%26quot%3Bmargin%3A0px%3Bmargin-top%3A4px%3Btext-align%3Acenter%3B%26quot%3B%26gt%3B%26lt%3Bb%26gt%3BUnitaIF%26lt%3B%2Fb%26gt%3B%26lt%3B%2Fp%26gt%3B%26lt%3Bhr%20size%3D%26quot%3B1%26quot%3B%20style%3D%26quot%3Bborder-style%3Asolid%3B%26quot%3B%26gt%3B%26lt%3Bp%20style%3D%26quot%3Bmargin%3A0px%3Bmargin-left%3A4px%3B%26quot%3B%26gt%3B%26lt%3B%2Fp%26gt%3B%26lt%3Bp%20style%3D%26quot%3Bmargin%3A0px%3Bmargin-left%3A4px%3B%26quot%3B%26gt%3B...%26lt%3B%2Fp%26gt%3B%26lt%3Bp%20style%3D%26quot%3Bmargin%3A0px%3Bmargin-left%3A4px%3B%26quot%3B%26gt%3B%26lt%3Bbr%26gt%3B%26lt%3B%2Fp%26gt%3B%26lt%3Bp%20style%3D%26quot%3Bmargin%3A0px%3Bmargin-left%3A4px%3B%26quot%3B%26gt%3B%2B%26amp%3Bnbsp%3B%26lt%3Bspan%20style%3D%26quot%3Bbackground-color%3A%20initial%3B%26quot%3B%26gt%3Baccept(v%3AVisitor)%3AString%26lt%3B%2Fspan%26gt%3B%26lt%3Bbr%26gt%3B%26lt%3B%2Fp%26gt%3B%22%20style%3D%22verticalAlign%3Dtop%3Balign%3Dleft%3Boverflow%3Dfill%3Bhtml%3D1%3BwhiteSpace%3Dwrap%3B%22%20vertex%3D%221%22%20parent%3D%221%22%3E%3CmxGeometry%20x%3D%2234%22%20y%3D%22600%22%20width%3D%22161%22%20height%3D%2289%22%20as%3D%22geometry%22%2F%3E%3C%2FmxCell%3E%3CmxCell%20id%3D%226%22%20value%3D%22%26lt%3Bp%20style%3D%26quot%3Bmargin%3A0px%3Bmargin-top%3A4px%3Btext-align%3Acenter%3B%26quot%3B%26gt%3B%26lt%3Bb%26gt%3BOrganoGestione%26lt%3B%2Fb%26gt%3B%26lt%3B%2Fp%26gt%3B%26lt%3Bhr%20size%3D%26quot%3B1%26quot%3B%20style%3D%26quot%3Bborder-style%3Asolid%3B%26quot%3B%26gt%3B%26lt%3Bp%20style%3D%26quot%3Bmargin%3A0px%3Bmargin-left%3A4px%3B%26quot%3B%26gt%3B%26lt%3B%2Fp%26gt%3B%26lt%3Bp%20style%3D%26quot%3Bmargin%3A0px%3Bmargin-left%3A4px%3B%26quot%3B%26gt%3B...%26lt%3B%2Fp%26gt%3B%26lt%3Bp%20style%3D%26quot%3Bmargin%3A0px%3Bmargin-left%3A4px%3B%26quot%3B%26gt%3B%26lt%3Bbr%26gt%3B%26lt%3B%2Fp%26gt%3B%26lt%3Bp%20style%3D%26quot%3Bmargin%3A0px%3Bmargin-left%3A4px%3B%26quot%3B%26gt%3B%2B%26amp%3Bnbsp%3B%26lt%3Bspan%20style%3D%26quot%3Bbackground-color%3A%20initial%3B%26quot%3B%26gt%3Baccept(v%3AVisitor)%3AString%26lt%3B%2Fspan%26gt%3B%26lt%3B%2Fp%26gt%3B%22%20style%3D%22verticalAlign%3Dtop%3Balign%3Dleft%3Boverflow%3Dfill%3Bhtml%3D1%3BwhiteSpace%3Dwrap%3B%22%20vertex%3D%221%22%20parent%3D%221%22%3E%3CmxGeometry%20x%3D%22235%22%20y%3D%22600%22%20width%3D%22161%22%20height%3D%2289%22%20as%3D%22geometry%22%2F%3E%3C%2FmxCell%3E%3CmxCell%20id%3D%227%22%20value%3D%22%22%20style%3D%22endArrow%3Dopen%3Bhtml%3D1%3Brounded%3D0%3BexitX%3D0.896%3BexitY%3D0.001%3BexitDx%3D0%3BexitDy%3D0%3BentryX%3D0.999%3BentryY%3D0.646%3BentryDx%3D0%3BentryDy%3D0%3BendFill%3D0%3BstartArrow%3Ddiamond%3BstartFill%3D0%3BstartSize%3D12%3BexitPerimeter%3D0%3BentryPerimeter%3D0%3B%22%20edge%3D%221%22%20source%3D%226%22%20target%3D%224%22%20parent%3D%221%22%3E%3CmxGeometry%20width%3D%2250%22%20height%3D%2250%22%20relative%3D%221%22%20as%3D%22geometry%22%3E%3CmxPoint%20x%3D%22379%22%20y%3D%22600%22%20as%3D%22sourcePoint%22%2F%3E%3CmxPoint%20x%3D%22310%22%20y%3D%22465%22%20as%3D%22targetPoint%22%2F%3E%3CArray%20as%3D%22points%22%3E%3CmxPoint%20x%3D%22380%22%20y%3D%22465%22%2F%3E%3C%2FArray%3E%3C%2FmxGeometry%3E%3C%2FmxCell%3E%3CmxCell%20id%3D%228%22%20value%3D%22children%22%20style%3D%22edgeLabel%3Bhtml%3D1%3Balign%3Dcenter%3BverticalAlign%3Dmiddle%3Bresizable%3D0%3Bpoints%3D%5B%5D%3B%22%20vertex%3D%221%22%20connectable%3D%220%22%20parent%3D%227%22%3E%3CmxGeometry%20x%3D%22-0.7207%22%20y%3D%22-1%22%20relative%3D%221%22%20as%3D%22geometry%22%3E%3CmxPoint%20x%3D%2223%22%20y%3D%22-11%22%20as%3D%22offset%22%2F%3E%3C%2FmxGeometry%3E%3C%2FmxCell%3E%3C%2Froot%3E%3C%2FmxGraphModel%3E&lt;/span&gt;&lt;/p&gt;&lt;hr&gt;&lt;p style=&quot;margin:0px;margin-left:4px;&quot;&gt;...&lt;/p&gt;&lt;p style=&quot;color: rgb(0, 0, 0); margin: 0px 0px 0px 4px;&quot;&gt;+ addDipendente(d:Dipendente, ruolo:String)&lt;/p&gt;&lt;p style=&quot;color: rgb(0, 0, 0); margin: 0px 0px 0px 4px;&quot;&gt;+ removeDipendente(d:Dipendente)&lt;/p&gt;&lt;p style=&quot;color: rgb(0, 0, 0); margin: 0px 0px 0px 4px;&quot;&gt;+ getDipendenti():Set&amp;lt;Dipendente&amp;gt;&lt;/p&gt;" style="verticalAlign=top;align=left;overflow=fill;html=1;whiteSpace=wrap;" parent="1" vertex="1">
          <mxGeometry x="474" y="635" width="280" height="130" as="geometry" />
        </mxCell>
        <mxCell id="pMJ5YpjYv8QFMYLnoMeH-2" value="&lt;p style=&quot;margin:0px;margin-top:4px;text-align:center;&quot;&gt;&lt;b&gt;Dipendente&lt;/b&gt;&lt;/p&gt;&lt;hr size=&quot;1&quot; style=&quot;border-style:solid;&quot;&gt;&lt;p style=&quot;margin:0px;margin-left:4px;&quot;&gt;&lt;/p&gt;&lt;p style=&quot;margin:0px;margin-left:4px;&quot;&gt;...&lt;/p&gt;" style="verticalAlign=top;align=left;overflow=fill;html=1;whiteSpace=wrap;" parent="1" vertex="1">
          <mxGeometry x="74" y="430" width="160" height="80" as="geometry" />
        </mxCell>
      </root>
    </mxGraphModel>
  </diagram>
  <diagram id="xMWlbs6XOlkTLNE3Z1Rz" name="Parte 6 - Creazione GUI">
    <mxGraphModel dx="1750" dy="1035" grid="1" gridSize="10" guides="1" tooltips="1" connect="1" arrows="1" fold="1" page="1" pageScale="1" pageWidth="827" pageHeight="1169" math="0" shadow="0">
      <root>
        <mxCell id="0" />
        <mxCell id="1" parent="0" />
        <mxCell id="AQszk6yhvOGfud7bVyFk-1" value="&lt;h1 style=&quot;margin-top: 0px;&quot;&gt;Fase 6: Creazione della GUI&lt;/h1&gt;&lt;p&gt;Riferimenti:&lt;/p&gt;&lt;p&gt;&lt;/p&gt;&lt;ul&gt;&lt;li&gt;https://www.youtube.com/watch?v=ufsUqYuV4YI&amp;amp;list=PLbVQjP43o18AumovahkQPw5hnrrl48ynt&amp;amp;pp=iAQB&lt;/li&gt;&lt;li&gt;https://jgrapht.org/&lt;br&gt;&lt;/li&gt;&lt;/ul&gt;&lt;div&gt;&lt;br&gt;&lt;/div&gt;&lt;div&gt;Come importare JGraphT:&lt;/div&gt;&lt;div&gt;&lt;ol&gt;&lt;li&gt;Scarica la relase dal sito&lt;/li&gt;&lt;li&gt;Apri la cartella &quot;lib&quot;e cerca &quot;jgrapht-core-x.y.z.jar&quot;&lt;/li&gt;&lt;li&gt;Crea una cartella &quot;lib&quot; nel tuo progetto e copia il file di prima al suo interno&lt;/li&gt;&lt;li&gt;Su Intellij, files &amp;gt; Project Structure &amp;gt; Modules &amp;gt; Dependencies &amp;gt; + &amp;gt; JARs or Directories &amp;gt; jgrapht-core-x.y.z.jar &amp;gt; Applica&lt;br&gt;&lt;/li&gt;&lt;/ol&gt;&lt;div&gt;Allo stesso modo, installa le altre librerie che ti servono per il progetto: incluso JUnit, JGraphX (nella stessa cartella &quot;lib&quot; di JGraphT), ecc...&lt;/div&gt;&lt;/div&gt;" style="text;html=1;whiteSpace=wrap;overflow=hidden;rounded=0;" parent="1" vertex="1">
          <mxGeometry x="80" y="80" width="680" height="280" as="geometry" />
        </mxCell>
        <mxCell id="fb4eer1QgzfQxe8pNb3t-4" style="edgeStyle=orthogonalEdgeStyle;rounded=0;orthogonalLoop=1;jettySize=auto;html=1;entryX=0.5;entryY=0;entryDx=0;entryDy=0;endArrow=open;endFill=0;" parent="1" source="fb4eer1QgzfQxe8pNb3t-1" target="fb4eer1QgzfQxe8pNb3t-3" edge="1">
          <mxGeometry relative="1" as="geometry" />
        </mxCell>
        <mxCell id="fb4eer1QgzfQxe8pNb3t-5" style="edgeStyle=orthogonalEdgeStyle;rounded=0;orthogonalLoop=1;jettySize=auto;html=1;exitX=0.5;exitY=1;exitDx=0;exitDy=0;entryX=0.5;entryY=0;entryDx=0;entryDy=0;endArrow=open;endFill=0;" parent="1" source="fb4eer1QgzfQxe8pNb3t-1" target="fb4eer1QgzfQxe8pNb3t-2" edge="1">
          <mxGeometry relative="1" as="geometry" />
        </mxCell>
        <mxCell id="fb4eer1QgzfQxe8pNb3t-1" value="&lt;p style=&quot;margin:0px;margin-top:4px;text-align:center;&quot;&gt;&lt;b&gt;Main&lt;/b&gt;&lt;/p&gt;&lt;hr size=&quot;1&quot; style=&quot;border-style:solid;&quot;&gt;&lt;p style=&quot;margin:0px;margin-left:4px;&quot;&gt;&lt;/p&gt;&lt;p style=&quot;margin:0px;margin-left:4px;&quot;&gt;...&lt;/p&gt;&lt;p style=&quot;margin:0px;margin-left:4px;&quot;&gt;&lt;br&gt;&lt;/p&gt;" style="verticalAlign=top;align=left;overflow=fill;html=1;whiteSpace=wrap;" parent="1" vertex="1">
          <mxGeometry x="239" y="480" width="161" height="89" as="geometry" />
        </mxCell>
        <mxCell id="wmJozFCsTQCprH6POJHB-6" style="edgeStyle=orthogonalEdgeStyle;rounded=0;orthogonalLoop=1;jettySize=auto;html=1;entryX=0;entryY=0.5;entryDx=0;entryDy=0;endArrow=open;endFill=0;" edge="1" parent="1" source="fb4eer1QgzfQxe8pNb3t-2" target="wmJozFCsTQCprH6POJHB-1">
          <mxGeometry relative="1" as="geometry" />
        </mxCell>
        <mxCell id="wmJozFCsTQCprH6POJHB-7" style="edgeStyle=orthogonalEdgeStyle;rounded=0;orthogonalLoop=1;jettySize=auto;html=1;entryX=0;entryY=0.5;entryDx=0;entryDy=0;endArrow=open;endFill=0;" edge="1" parent="1" source="fb4eer1QgzfQxe8pNb3t-2" target="wmJozFCsTQCprH6POJHB-4">
          <mxGeometry relative="1" as="geometry" />
        </mxCell>
        <mxCell id="wmJozFCsTQCprH6POJHB-8" style="edgeStyle=orthogonalEdgeStyle;rounded=0;orthogonalLoop=1;jettySize=auto;html=1;entryX=0;entryY=0.5;entryDx=0;entryDy=0;endArrow=open;endFill=0;" edge="1" parent="1" source="fb4eer1QgzfQxe8pNb3t-2" target="wmJozFCsTQCprH6POJHB-5">
          <mxGeometry relative="1" as="geometry" />
        </mxCell>
        <mxCell id="fb4eer1QgzfQxe8pNb3t-2" value="&lt;p style=&quot;margin:0px;margin-top:4px;text-align:center;&quot;&gt;&lt;b&gt;CommandsPanel&lt;/b&gt;&lt;/p&gt;&lt;hr size=&quot;1&quot; style=&quot;border-style:solid;&quot;&gt;&lt;p style=&quot;margin:0px;margin-left:4px;&quot;&gt;&lt;/p&gt;&lt;p style=&quot;margin:0px;margin-left:4px;&quot;&gt;+ setRoot(newRoot:UitaIF)&lt;/p&gt;&lt;p style=&quot;margin:0px;margin-left:4px;&quot;&gt;+ drawGraph()&lt;/p&gt;&lt;p style=&quot;margin:0px;margin-left:4px;&quot;&gt;...&lt;/p&gt;&lt;p style=&quot;margin:0px;margin-left:4px;&quot;&gt;&lt;br&gt;&lt;/p&gt;" style="verticalAlign=top;align=left;overflow=fill;html=1;whiteSpace=wrap;" parent="1" vertex="1">
          <mxGeometry x="396" y="670" width="161" height="89" as="geometry" />
        </mxCell>
        <mxCell id="m9qmRzhJgfq23RsCGAFH-3" value="" style="edgeStyle=orthogonalEdgeStyle;rounded=0;orthogonalLoop=1;jettySize=auto;html=1;endArrow=open;endFill=0;" edge="1" parent="1" source="fb4eer1QgzfQxe8pNb3t-3" target="fb4eer1QgzfQxe8pNb3t-2">
          <mxGeometry relative="1" as="geometry" />
        </mxCell>
        <mxCell id="m9qmRzhJgfq23RsCGAFH-4" value="centerPanel" style="edgeLabel;html=1;align=center;verticalAlign=middle;resizable=0;points=[];" vertex="1" connectable="0" parent="m9qmRzhJgfq23RsCGAFH-3">
          <mxGeometry x="0.2187" relative="1" as="geometry">
            <mxPoint x="-15" y="-14" as="offset" />
          </mxGeometry>
        </mxCell>
        <mxCell id="fb4eer1QgzfQxe8pNb3t-3" value="&lt;p style=&quot;margin:0px;margin-top:4px;text-align:center;&quot;&gt;&lt;b&gt;ViewerPanel&lt;/b&gt;&lt;/p&gt;&lt;hr size=&quot;1&quot; style=&quot;border-style:solid;&quot;&gt;&lt;p style=&quot;margin:0px;margin-left:4px;&quot;&gt;&lt;/p&gt;&lt;p style=&quot;margin:0px;margin-left:4px;&quot;&gt;...&lt;/p&gt;&lt;p style=&quot;margin:0px;margin-left:4px;&quot;&gt;&lt;br&gt;&lt;/p&gt;" style="verticalAlign=top;align=left;overflow=fill;html=1;whiteSpace=wrap;" parent="1" vertex="1">
          <mxGeometry x="136" y="670" width="161" height="89" as="geometry" />
        </mxCell>
        <mxCell id="2kQCtaltWVoSTH_TYSNy-1" value="...&lt;div&gt;&lt;br&gt;&lt;/div&gt;&lt;div&gt;centerPanel.setRoot(IOManager.apriDaFile());&lt;/div&gt;&lt;div&gt;centerPanel.drawGraph();&lt;/div&gt;&lt;div&gt;...&lt;/div&gt;" style="shape=note2;boundedLbl=1;whiteSpace=wrap;html=1;size=17;verticalAlign=middle;align=left;fontSize=12;spacing=8;" vertex="1" parent="1">
          <mxGeometry x="43" y="800" width="268" height="101" as="geometry" />
        </mxCell>
        <mxCell id="2kQCtaltWVoSTH_TYSNy-2" style="edgeStyle=orthogonalEdgeStyle;rounded=0;orthogonalLoop=1;jettySize=auto;html=1;dashed=1;endArrow=none;endFill=0;exitX=0.842;exitY=0.006;exitDx=0;exitDy=0;exitPerimeter=0;entryX=0.824;entryY=0.562;entryDx=0;entryDy=0;entryPerimeter=0;" edge="1" parent="1" source="2kQCtaltWVoSTH_TYSNy-1" target="fb4eer1QgzfQxe8pNb3t-3">
          <mxGeometry relative="1" as="geometry">
            <mxPoint x="236" y="789" as="sourcePoint" />
            <mxPoint x="269" y="730" as="targetPoint" />
          </mxGeometry>
        </mxCell>
        <mxCell id="wmJozFCsTQCprH6POJHB-1" value="&lt;p style=&quot;margin:0px;margin-top:4px;text-align:center;&quot;&gt;&lt;b&gt;AddDipendenteDialog&lt;/b&gt;&lt;/p&gt;&lt;hr size=&quot;1&quot; style=&quot;border-style:solid;&quot;&gt;&lt;p style=&quot;margin:0px;margin-left:4px;&quot;&gt;&lt;/p&gt;&lt;p style=&quot;margin:0px;margin-left:4px;&quot;&gt;&lt;span style=&quot;background-color: initial;&quot;&gt;...&lt;/span&gt;&lt;br&gt;&lt;/p&gt;&lt;p style=&quot;margin:0px;margin-left:4px;&quot;&gt;&lt;br&gt;&lt;/p&gt;" style="verticalAlign=top;align=left;overflow=fill;html=1;whiteSpace=wrap;" vertex="1" parent="1">
          <mxGeometry x="623" y="589.5" width="161" height="70" as="geometry" />
        </mxCell>
        <mxCell id="wmJozFCsTQCprH6POJHB-4" value="&lt;p style=&quot;margin:0px;margin-top:4px;text-align:center;&quot;&gt;&lt;b&gt;CreaUnitaDialog&lt;/b&gt;&lt;/p&gt;&lt;hr size=&quot;1&quot; style=&quot;border-style:solid;&quot;&gt;&lt;p style=&quot;margin:0px;margin-left:4px;&quot;&gt;&lt;/p&gt;&lt;p style=&quot;margin:0px;margin-left:4px;&quot;&gt;&lt;span style=&quot;background-color: initial;&quot;&gt;...&lt;/span&gt;&lt;br&gt;&lt;/p&gt;&lt;p style=&quot;margin:0px;margin-left:4px;&quot;&gt;&lt;br&gt;&lt;/p&gt;" style="verticalAlign=top;align=left;overflow=fill;html=1;whiteSpace=wrap;" vertex="1" parent="1">
          <mxGeometry x="623" y="679.5" width="161" height="70" as="geometry" />
        </mxCell>
        <mxCell id="wmJozFCsTQCprH6POJHB-5" value="&lt;p style=&quot;margin:0px;margin-top:4px;text-align:center;&quot;&gt;&lt;b&gt;EditUnitaDialog&lt;/b&gt;&lt;/p&gt;&lt;hr size=&quot;1&quot; style=&quot;border-style:solid;&quot;&gt;&lt;p style=&quot;margin:0px;margin-left:4px;&quot;&gt;&lt;/p&gt;&lt;p style=&quot;margin:0px;margin-left:4px;&quot;&gt;&lt;span style=&quot;background-color: initial;&quot;&gt;...&lt;/span&gt;&lt;br&gt;&lt;/p&gt;&lt;p style=&quot;margin:0px;margin-left:4px;&quot;&gt;&lt;br&gt;&lt;/p&gt;" style="verticalAlign=top;align=left;overflow=fill;html=1;whiteSpace=wrap;" vertex="1" parent="1">
          <mxGeometry x="623" y="769.5" width="161" height="70" as="geometry" />
        </mxCell>
      </root>
    </mxGraphModel>
  </diagram>
  <diagram id="SstkFNLfqq5MinhOLxVH" name="Parte 7 - Testing">
    <mxGraphModel dx="1050" dy="621" grid="1" gridSize="10" guides="1" tooltips="1" connect="1" arrows="1" fold="1" page="1" pageScale="1" pageWidth="827" pageHeight="1169" math="0" shadow="0">
      <root>
        <mxCell id="0" />
        <mxCell id="1" parent="0" />
        <mxCell id="yhjVJK3iLGAsJZgrus4C-1" value="&lt;h1 style=&quot;margin-top: 0px;&quot;&gt;Fase 7: Testing&lt;/h1&gt;&lt;p&gt;Essendo consigliato l&#39;utilizzo di un software di testing, decido di usare JUnit per testare singolarmente le componenti dell&#39;applicazione.&amp;nbsp;&lt;/p&gt;&lt;p&gt;Dopo averlo installato, come descritto nella fase precedente, testo innanzitutto l&#39;iteratore&lt;/p&gt;" style="text;html=1;whiteSpace=wrap;overflow=hidden;rounded=0;" parent="1" vertex="1">
          <mxGeometry x="80" y="80" width="680" height="280" as="geometry" />
        </mxCell>
      </root>
    </mxGraphModel>
  </diagram>
  <diagram id="TeX713KdeOTygqkNW67e" name="Diagramma casi d&#39;uso">
    <mxGraphModel dx="2100" dy="1242" grid="1" gridSize="10" guides="1" tooltips="1" connect="1" arrows="1" fold="1" page="1" pageScale="1" pageWidth="827" pageHeight="1169" math="0" shadow="0">
      <root>
        <mxCell id="0" />
        <mxCell id="1" parent="0" />
        <mxCell id="Ckzd6LUqQ57kTFa5HCa1-1" value="&lt;h1 style=&quot;margin-top: 0px;&quot;&gt;Diagramma dei casi d&#39;uso&lt;/h1&gt;&lt;p&gt;Serve per rappresentare le interazioni tra utente e sistema.&lt;/p&gt;" style="text;html=1;whiteSpace=wrap;overflow=hidden;rounded=0;" vertex="1" parent="1">
          <mxGeometry x="80" y="80" width="680" height="110" as="geometry" />
        </mxCell>
        <mxCell id="Ckzd6LUqQ57kTFa5HCa1-2" value="Utente" style="shape=umlActor;verticalLabelPosition=bottom;verticalAlign=top;html=1;" vertex="1" parent="1">
          <mxGeometry x="55" y="506.5" width="30" height="60" as="geometry" />
        </mxCell>
        <mxCell id="Ckzd6LUqQ57kTFa5HCa1-5" value="Sistema" style="html=1;whiteSpace=wrap;align=left;verticalAlign=top;fontSize=12;spacingTop=0;spacing=4;spacingLeft=8;" vertex="1" parent="1">
          <mxGeometry x="195" y="267" width="590" height="635" as="geometry" />
        </mxCell>
        <mxCell id="Ckzd6LUqQ57kTFa5HCa1-6" value="Salva organigramma" style="ellipse;whiteSpace=wrap;html=1;" vertex="1" parent="1">
          <mxGeometry x="265" y="324" width="160" height="70" as="geometry" />
        </mxCell>
        <mxCell id="Ckzd6LUqQ57kTFa5HCa1-11" value="" style="endArrow=none;startArrow=none;endFill=0;startFill=0;endSize=8;html=1;verticalAlign=bottom;labelBackgroundColor=none;strokeWidth=1;rounded=0;entryX=0;entryY=0.5;entryDx=0;entryDy=0;exitX=0.5;exitY=0.5;exitDx=0;exitDy=0;exitPerimeter=0;" edge="1" parent="1" source="Ckzd6LUqQ57kTFa5HCa1-2" target="Ckzd6LUqQ57kTFa5HCa1-6">
          <mxGeometry width="160" relative="1" as="geometry">
            <mxPoint x="225" y="392" as="sourcePoint" />
            <mxPoint x="385" y="392" as="targetPoint" />
          </mxGeometry>
        </mxCell>
        <mxCell id="Ckzd6LUqQ57kTFa5HCa1-12" value="Apri organigramma" style="ellipse;whiteSpace=wrap;html=1;" vertex="1" parent="1">
          <mxGeometry x="265" y="413" width="160" height="70" as="geometry" />
        </mxCell>
        <mxCell id="Ckzd6LUqQ57kTFa5HCa1-13" value="Nuovo organigramma" style="ellipse;whiteSpace=wrap;html=1;" vertex="1" parent="1">
          <mxGeometry x="265" y="502" width="160" height="70" as="geometry" />
        </mxCell>
        <mxCell id="Ckzd6LUqQ57kTFa5HCa1-14" value="Aggiorna grafico" style="ellipse;whiteSpace=wrap;html=1;" vertex="1" parent="1">
          <mxGeometry x="265" y="590" width="160" height="70" as="geometry" />
        </mxCell>
        <mxCell id="Ckzd6LUqQ57kTFa5HCa1-15" value="" style="endArrow=none;startArrow=none;endFill=0;startFill=0;endSize=8;html=1;verticalAlign=bottom;labelBackgroundColor=none;strokeWidth=1;rounded=0;entryX=0;entryY=0.5;entryDx=0;entryDy=0;exitX=0.5;exitY=0.5;exitDx=0;exitDy=0;exitPerimeter=0;" edge="1" parent="1" source="Ckzd6LUqQ57kTFa5HCa1-2" target="Ckzd6LUqQ57kTFa5HCa1-12">
          <mxGeometry width="160" relative="1" as="geometry">
            <mxPoint x="125" y="465" as="sourcePoint" />
            <mxPoint x="409" y="337" as="targetPoint" />
          </mxGeometry>
        </mxCell>
        <mxCell id="Ckzd6LUqQ57kTFa5HCa1-16" value="" style="endArrow=none;startArrow=none;endFill=0;startFill=0;endSize=8;html=1;verticalAlign=bottom;labelBackgroundColor=none;strokeWidth=1;rounded=0;entryX=0;entryY=0.5;entryDx=0;entryDy=0;exitX=0.5;exitY=0.5;exitDx=0;exitDy=0;exitPerimeter=0;" edge="1" parent="1" source="Ckzd6LUqQ57kTFa5HCa1-2" target="Ckzd6LUqQ57kTFa5HCa1-13">
          <mxGeometry width="160" relative="1" as="geometry">
            <mxPoint x="135" y="475" as="sourcePoint" />
            <mxPoint x="419" y="347" as="targetPoint" />
          </mxGeometry>
        </mxCell>
        <mxCell id="Ckzd6LUqQ57kTFa5HCa1-17" value="" style="endArrow=none;startArrow=none;endFill=0;startFill=0;endSize=8;html=1;verticalAlign=bottom;labelBackgroundColor=none;strokeWidth=1;rounded=0;entryX=0;entryY=0.5;entryDx=0;entryDy=0;exitX=0.5;exitY=0.5;exitDx=0;exitDy=0;exitPerimeter=0;" edge="1" parent="1" source="Ckzd6LUqQ57kTFa5HCa1-2" target="Ckzd6LUqQ57kTFa5HCa1-14">
          <mxGeometry width="160" relative="1" as="geometry">
            <mxPoint x="145" y="485" as="sourcePoint" />
            <mxPoint x="429" y="357" as="targetPoint" />
          </mxGeometry>
        </mxCell>
        <mxCell id="Ckzd6LUqQ57kTFa5HCa1-19" value="Modifica unità" style="ellipse;whiteSpace=wrap;html=1;" vertex="1" parent="1">
          <mxGeometry x="265" y="679" width="160" height="70" as="geometry" />
        </mxCell>
        <mxCell id="Ckzd6LUqQ57kTFa5HCa1-20" value="Rinomina&amp;nbsp;&lt;span style=&quot;background-color: initial;&quot;&gt;unità&lt;/span&gt;" style="ellipse;whiteSpace=wrap;html=1;" vertex="1" parent="1">
          <mxGeometry x="575" y="559.5" width="160" height="70" as="geometry" />
        </mxCell>
        <mxCell id="Ckzd6LUqQ57kTFa5HCa1-21" value="Aggiungi sotto-unità" style="ellipse;whiteSpace=wrap;html=1;" vertex="1" parent="1">
          <mxGeometry x="575" y="639.5" width="160" height="70" as="geometry" />
        </mxCell>
        <mxCell id="Ckzd6LUqQ57kTFa5HCa1-22" value="Aggiungi dipendente" style="ellipse;whiteSpace=wrap;html=1;" vertex="1" parent="1">
          <mxGeometry x="575" y="718.5" width="160" height="70" as="geometry" />
        </mxCell>
        <mxCell id="Ckzd6LUqQ57kTFa5HCa1-23" value="Elimina dipendente" style="ellipse;whiteSpace=wrap;html=1;" vertex="1" parent="1">
          <mxGeometry x="575" y="798.5" width="160" height="70" as="geometry" />
        </mxCell>
        <mxCell id="Ckzd6LUqQ57kTFa5HCa1-25" value="" style="endArrow=none;startArrow=none;endFill=0;startFill=0;endSize=8;html=1;verticalAlign=bottom;labelBackgroundColor=none;strokeWidth=1;rounded=0;entryX=0;entryY=0.5;entryDx=0;entryDy=0;exitX=0.5;exitY=0.5;exitDx=0;exitDy=0;exitPerimeter=0;" edge="1" parent="1" source="Ckzd6LUqQ57kTFa5HCa1-2" target="Ckzd6LUqQ57kTFa5HCa1-19">
          <mxGeometry width="160" relative="1" as="geometry">
            <mxPoint x="110" y="472" as="sourcePoint" />
            <mxPoint x="289" y="608" as="targetPoint" />
          </mxGeometry>
        </mxCell>
        <mxCell id="Ckzd6LUqQ57kTFa5HCa1-26" value="" style="endArrow=open;startArrow=none;endFill=0;startFill=0;endSize=8;html=1;verticalAlign=bottom;labelBackgroundColor=none;strokeWidth=1;rounded=0;entryX=0;entryY=0.5;entryDx=0;entryDy=0;exitX=1;exitY=0.5;exitDx=0;exitDy=0;dashed=1;" edge="1" parent="1" source="Ckzd6LUqQ57kTFa5HCa1-19" target="Ckzd6LUqQ57kTFa5HCa1-20">
          <mxGeometry width="160" relative="1" as="geometry">
            <mxPoint x="415" y="718.5" as="sourcePoint" />
            <mxPoint x="610" y="895.5" as="targetPoint" />
          </mxGeometry>
        </mxCell>
        <mxCell id="Ckzd6LUqQ57kTFa5HCa1-30" value="&amp;lt;&amp;lt;include&amp;gt;&amp;gt;" style="edgeLabel;html=1;align=center;verticalAlign=middle;resizable=0;points=[];" vertex="1" connectable="0" parent="Ckzd6LUqQ57kTFa5HCa1-26">
          <mxGeometry x="-0.0814" y="-1" relative="1" as="geometry">
            <mxPoint as="offset" />
          </mxGeometry>
        </mxCell>
        <mxCell id="Ckzd6LUqQ57kTFa5HCa1-31" value="" style="endArrow=open;startArrow=none;endFill=0;startFill=0;endSize=8;html=1;verticalAlign=bottom;labelBackgroundColor=none;strokeWidth=1;rounded=0;entryX=0;entryY=0.5;entryDx=0;entryDy=0;exitX=1;exitY=0.5;exitDx=0;exitDy=0;dashed=1;" edge="1" parent="1" source="Ckzd6LUqQ57kTFa5HCa1-19" target="Ckzd6LUqQ57kTFa5HCa1-21">
          <mxGeometry width="160" relative="1" as="geometry">
            <mxPoint x="435" y="724" as="sourcePoint" />
            <mxPoint x="545" y="605" as="targetPoint" />
          </mxGeometry>
        </mxCell>
        <mxCell id="Ckzd6LUqQ57kTFa5HCa1-32" value="&amp;lt;&amp;lt;include&amp;gt;&amp;gt;" style="edgeLabel;html=1;align=center;verticalAlign=middle;resizable=0;points=[];" vertex="1" connectable="0" parent="Ckzd6LUqQ57kTFa5HCa1-31">
          <mxGeometry x="-0.0814" y="-1" relative="1" as="geometry">
            <mxPoint as="offset" />
          </mxGeometry>
        </mxCell>
        <mxCell id="Ckzd6LUqQ57kTFa5HCa1-33" value="" style="endArrow=open;startArrow=none;endFill=0;startFill=0;endSize=8;html=1;verticalAlign=bottom;labelBackgroundColor=none;strokeWidth=1;rounded=0;entryX=0;entryY=0.5;entryDx=0;entryDy=0;exitX=1;exitY=0.5;exitDx=0;exitDy=0;dashed=1;" edge="1" parent="1" source="Ckzd6LUqQ57kTFa5HCa1-19" target="Ckzd6LUqQ57kTFa5HCa1-22">
          <mxGeometry width="160" relative="1" as="geometry">
            <mxPoint x="415" y="828.5" as="sourcePoint" />
            <mxPoint x="525" y="709.5" as="targetPoint" />
          </mxGeometry>
        </mxCell>
        <mxCell id="Ckzd6LUqQ57kTFa5HCa1-34" value="&amp;lt;&amp;lt;include&amp;gt;&amp;gt;" style="edgeLabel;html=1;align=center;verticalAlign=middle;resizable=0;points=[];" vertex="1" connectable="0" parent="Ckzd6LUqQ57kTFa5HCa1-33">
          <mxGeometry x="-0.0814" y="-1" relative="1" as="geometry">
            <mxPoint as="offset" />
          </mxGeometry>
        </mxCell>
        <mxCell id="Ckzd6LUqQ57kTFa5HCa1-35" value="" style="endArrow=open;startArrow=none;endFill=0;startFill=0;endSize=8;html=1;verticalAlign=bottom;labelBackgroundColor=none;strokeWidth=1;rounded=0;entryX=0;entryY=0.5;entryDx=0;entryDy=0;exitX=1;exitY=0.5;exitDx=0;exitDy=0;dashed=1;" edge="1" parent="1" source="Ckzd6LUqQ57kTFa5HCa1-19" target="Ckzd6LUqQ57kTFa5HCa1-23">
          <mxGeometry width="160" relative="1" as="geometry">
            <mxPoint x="385" y="881" as="sourcePoint" />
            <mxPoint x="495" y="762" as="targetPoint" />
          </mxGeometry>
        </mxCell>
        <mxCell id="Ckzd6LUqQ57kTFa5HCa1-36" value="&amp;lt;&amp;lt;include&amp;gt;&amp;gt;" style="edgeLabel;html=1;align=center;verticalAlign=middle;resizable=0;points=[];" vertex="1" connectable="0" parent="Ckzd6LUqQ57kTFa5HCa1-35">
          <mxGeometry x="-0.0814" y="-1" relative="1" as="geometry">
            <mxPoint as="offset" />
          </mxGeometry>
        </mxCell>
      </root>
    </mxGraphModel>
  </diagram>
  <diagram id="N38hyfMs5uhOOv9V4Tq_" name="Diagramma di sequenza">
    <mxGraphModel dx="1235" dy="731" grid="1" gridSize="10" guides="1" tooltips="1" connect="1" arrows="1" fold="1" page="1" pageScale="1" pageWidth="827" pageHeight="1169" math="0" shadow="0">
      <root>
        <mxCell id="0" />
        <mxCell id="1" parent="0" />
        <mxCell id="ML7WWATAeSuvtCrJ93Gz-1" value="&lt;h1 style=&quot;margin-top: 0px;&quot;&gt;Diagramma di sequenza&lt;/h1&gt;&lt;p&gt;Di seguito un diagramma di esempio che raffigura l&#39;aggiunta di una Unita semplice all&#39;organigramma. Dopo la chiamata al metodo addChild() per aggiungere l&#39;unità, viene richiamato il metodo per aggiornare gli osservatori. In questo modo l&#39;aggiornamento del grafico dell&#39;organigramma è automatico.&lt;/p&gt;" style="text;html=1;whiteSpace=wrap;overflow=hidden;rounded=0;" vertex="1" parent="1">
          <mxGeometry x="80" y="80" width="680" height="110" as="geometry" />
        </mxCell>
        <mxCell id="afoy0ALpst0v4heTxSQc-18" value="unitaCorrente:UnitaIF" style="shape=umlLifeline;perimeter=lifelinePerimeter;whiteSpace=wrap;html=1;container=1;dropTarget=0;collapsible=0;recursiveResize=0;outlineConnect=0;portConstraint=eastwest;newEdgeStyle={&quot;edgeStyle&quot;:&quot;elbowEdgeStyle&quot;,&quot;elbow&quot;:&quot;vertical&quot;,&quot;curved&quot;:0,&quot;rounded&quot;:0};" vertex="1" parent="1">
          <mxGeometry x="349" y="435" width="130" height="300" as="geometry" />
        </mxCell>
        <mxCell id="afoy0ALpst0v4heTxSQc-24" style="edgeStyle=orthogonalEdgeStyle;rounded=0;orthogonalLoop=1;jettySize=auto;html=1;curved=0;exitX=1;exitY=0;exitDx=0;exitDy=5;exitPerimeter=0;entryX=1;entryY=0;entryDx=0;entryDy=5;entryPerimeter=0;" edge="1" parent="afoy0ALpst0v4heTxSQc-18" source="afoy0ALpst0v4heTxSQc-19" target="GTMG-_K-3s3oPJhoRTPn-4">
          <mxGeometry relative="1" as="geometry">
            <mxPoint x="190" y="138" as="targetPoint" />
            <Array as="points">
              <mxPoint x="110" y="108" />
              <mxPoint x="110" y="128" />
            </Array>
          </mxGeometry>
        </mxCell>
        <mxCell id="afoy0ALpst0v4heTxSQc-25" value="notifyObservers()" style="edgeLabel;html=1;align=center;verticalAlign=middle;resizable=0;points=[];" vertex="1" connectable="0" parent="afoy0ALpst0v4heTxSQc-24">
          <mxGeometry x="-0.2192" y="3" relative="1" as="geometry">
            <mxPoint x="13" y="-7" as="offset" />
          </mxGeometry>
        </mxCell>
        <mxCell id="afoy0ALpst0v4heTxSQc-19" value="" style="html=1;points=[[0,0,0,0,5],[0,1,0,0,-5],[1,0,0,0,5],[1,1,0,0,-5]];perimeter=orthogonalPerimeter;outlineConnect=0;targetShapes=umlLifeline;portConstraint=eastwest;newEdgeStyle={&quot;curved&quot;:0,&quot;rounded&quot;:0};" vertex="1" parent="afoy0ALpst0v4heTxSQc-18">
          <mxGeometry x="60" y="103" width="10" height="130" as="geometry" />
        </mxCell>
        <mxCell id="GTMG-_K-3s3oPJhoRTPn-4" value="" style="html=1;points=[[0,0,0,0,5],[0,1,0,0,-5],[1,0,0,0,5],[1,1,0,0,-5]];perimeter=orthogonalPerimeter;outlineConnect=0;targetShapes=umlLifeline;portConstraint=eastwest;newEdgeStyle={&quot;curved&quot;:0,&quot;rounded&quot;:0};" vertex="1" parent="afoy0ALpst0v4heTxSQc-18">
          <mxGeometry x="65" y="123" width="10" height="70" as="geometry" />
        </mxCell>
        <mxCell id="afoy0ALpst0v4heTxSQc-20" value=":CreaUnitaDialog" style="shape=umlLifeline;perimeter=lifelinePerimeter;whiteSpace=wrap;html=1;container=1;dropTarget=0;collapsible=0;recursiveResize=0;outlineConnect=0;portConstraint=eastwest;newEdgeStyle={&quot;edgeStyle&quot;:&quot;elbowEdgeStyle&quot;,&quot;elbow&quot;:&quot;vertical&quot;,&quot;curved&quot;:0,&quot;rounded&quot;:0};" vertex="1" parent="1">
          <mxGeometry x="209" y="435" width="100" height="300" as="geometry" />
        </mxCell>
        <mxCell id="afoy0ALpst0v4heTxSQc-21" value="" style="html=1;points=[[0,0,0,0,5],[0,1,0,0,-5],[1,0,0,0,5],[1,1,0,0,-5]];perimeter=orthogonalPerimeter;outlineConnect=0;targetShapes=umlLifeline;portConstraint=eastwest;newEdgeStyle={&quot;curved&quot;:0,&quot;rounded&quot;:0};" vertex="1" parent="afoy0ALpst0v4heTxSQc-20">
          <mxGeometry x="45" y="73" width="10" height="170" as="geometry" />
        </mxCell>
        <mxCell id="afoy0ALpst0v4heTxSQc-22" style="edgeStyle=orthogonalEdgeStyle;rounded=0;orthogonalLoop=1;jettySize=auto;html=1;curved=0;entryX=0;entryY=0;entryDx=0;entryDy=5;entryPerimeter=0;" edge="1" parent="1" source="afoy0ALpst0v4heTxSQc-21" target="afoy0ALpst0v4heTxSQc-19">
          <mxGeometry relative="1" as="geometry">
            <Array as="points">
              <mxPoint x="299" y="543" />
              <mxPoint x="299" y="543" />
            </Array>
          </mxGeometry>
        </mxCell>
        <mxCell id="afoy0ALpst0v4heTxSQc-23" value="addChild(new Unita())" style="edgeLabel;html=1;align=center;verticalAlign=middle;resizable=0;points=[];" vertex="1" connectable="0" parent="afoy0ALpst0v4heTxSQc-22">
          <mxGeometry x="-0.152" relative="1" as="geometry">
            <mxPoint x="5" y="-11" as="offset" />
          </mxGeometry>
        </mxCell>
        <mxCell id="GTMG-_K-3s3oPJhoRTPn-14" value=":CreaUnitaDialog" style="shape=umlLifeline;perimeter=lifelinePerimeter;whiteSpace=wrap;html=1;container=1;dropTarget=0;collapsible=0;recursiveResize=0;outlineConnect=0;portConstraint=eastwest;newEdgeStyle={&quot;edgeStyle&quot;:&quot;elbowEdgeStyle&quot;,&quot;elbow&quot;:&quot;vertical&quot;,&quot;curved&quot;:0,&quot;rounded&quot;:0};" vertex="1" parent="1">
          <mxGeometry x="519" y="435" width="100" height="300" as="geometry" />
        </mxCell>
        <mxCell id="GTMG-_K-3s3oPJhoRTPn-15" value="" style="html=1;points=[[0,0,0,0,5],[0,1,0,0,-5],[1,0,0,0,5],[1,1,0,0,-5]];perimeter=orthogonalPerimeter;outlineConnect=0;targetShapes=umlLifeline;portConstraint=eastwest;newEdgeStyle={&quot;curved&quot;:0,&quot;rounded&quot;:0};" vertex="1" parent="GTMG-_K-3s3oPJhoRTPn-14">
          <mxGeometry x="45" y="153" width="10" height="70" as="geometry" />
        </mxCell>
        <mxCell id="GTMG-_K-3s3oPJhoRTPn-16" style="edgeStyle=orthogonalEdgeStyle;rounded=0;orthogonalLoop=1;jettySize=auto;html=1;curved=0;exitX=1;exitY=0;exitDx=0;exitDy=5;exitPerimeter=0;entryX=1;entryY=0;entryDx=0;entryDy=5;entryPerimeter=0;" edge="1" parent="GTMG-_K-3s3oPJhoRTPn-14" source="GTMG-_K-3s3oPJhoRTPn-15" target="GTMG-_K-3s3oPJhoRTPn-18">
          <mxGeometry relative="1" as="geometry">
            <Array as="points">
              <mxPoint x="75" y="158" />
              <mxPoint x="75" y="175" />
            </Array>
          </mxGeometry>
        </mxCell>
        <mxCell id="GTMG-_K-3s3oPJhoRTPn-17" value="drawGraph()" style="edgeLabel;html=1;align=center;verticalAlign=middle;resizable=0;points=[];" vertex="1" connectable="0" parent="GTMG-_K-3s3oPJhoRTPn-16">
          <mxGeometry x="0.1106" y="2" relative="1" as="geometry">
            <mxPoint x="15" y="-20" as="offset" />
          </mxGeometry>
        </mxCell>
        <mxCell id="GTMG-_K-3s3oPJhoRTPn-18" value="" style="html=1;points=[[0,0,0,0,5],[0,1,0,0,-5],[1,0,0,0,5],[1,1,0,0,-5]];perimeter=orthogonalPerimeter;outlineConnect=0;targetShapes=umlLifeline;portConstraint=eastwest;newEdgeStyle={&quot;curved&quot;:0,&quot;rounded&quot;:0};" vertex="1" parent="GTMG-_K-3s3oPJhoRTPn-14">
          <mxGeometry x="50" y="170" width="10" height="33" as="geometry" />
        </mxCell>
        <mxCell id="GTMG-_K-3s3oPJhoRTPn-5" style="edgeStyle=orthogonalEdgeStyle;rounded=0;orthogonalLoop=1;jettySize=auto;html=1;curved=0;" edge="1" parent="1" source="GTMG-_K-3s3oPJhoRTPn-4" target="GTMG-_K-3s3oPJhoRTPn-15">
          <mxGeometry relative="1" as="geometry">
            <mxPoint x="559" y="613" as="targetPoint" />
            <Array as="points">
              <mxPoint x="549" y="588" />
              <mxPoint x="549" y="588" />
            </Array>
          </mxGeometry>
        </mxCell>
        <mxCell id="GTMG-_K-3s3oPJhoRTPn-6" value="update(unitaCorrente)" style="edgeLabel;html=1;align=center;verticalAlign=middle;resizable=0;points=[];" vertex="1" connectable="0" parent="GTMG-_K-3s3oPJhoRTPn-5">
          <mxGeometry x="-0.3128" y="1" relative="1" as="geometry">
            <mxPoint x="15" y="-7" as="offset" />
          </mxGeometry>
        </mxCell>
      </root>
    </mxGraphModel>
  </diagram>
</mxfile>
